<svg width="352" height="359" viewBox="0 0 352 359" fill="none" xmlns="http://www.w3.org/2000/svg">
<g opacity="0.8" clip-path="url(#clip0_1_1364)">
<path d="M49.1171 154.39C66.8629 122.123 134.886 105.524 203.531 117.29C251.388 125.488 289.151 145.671 302.082 169.948C307.608 180.359 308.157 191.117 303.654 201.102C288.285 235.108 218.417 252.928 147.889 240.883C100.02 232.678 62.2575 212.495 49.3378 188.225C43.8058 177.826 43.2627 167.055 47.7597 157.082C48.1823 156.173 48.6547 155.23 49.1171 154.39ZM301.615 203.435C302.097 202.559 302.565 201.706 302.946 200.79C307.409 190.906 306.888 180.657 301.396 170.326C288.59 146.241 251.039 126.206 203.425 117.987C135.099 106.289 67.4211 122.707 49.8132 154.695C49.3378 155.56 48.8624 156.424 48.5002 157.335C44.0369 167.219 44.5515 177.48 50.0437 187.811C62.8497 211.896 100.4 231.931 148.047 240.091C216.341 251.848 284.025 235.418 301.615 203.435Z" fill="black"/>
<path d="M43.5853 160.154C60.3998 129.58 124.628 110.2 193.812 116.186C245.373 120.653 289.136 138.738 305.303 162.296C311.735 171.648 313.582 181.254 310.793 190.871C300.805 225.476 232.043 248.47 157.629 242.06C106.061 237.604 62.305 219.508 46.1317 195.962C39.6996 186.61 37.859 176.992 40.6294 167.381C41.3482 164.871 42.3394 162.448 43.5853 160.154ZM307.113 197.73C308.36 195.481 309.354 193.1 310.076 190.631C312.795 181.253 310.97 171.86 304.694 162.701C288.634 139.341 245.091 121.362 193.759 116.928C124.883 110.973 60.958 130.165 44.3063 160.442C43.0586 162.692 42.0648 165.073 41.3432 167.542C38.6243 176.919 40.443 186.325 46.7256 195.471C62.7787 218.843 106.316 236.804 157.66 241.245C226.537 247.2 290.435 228.055 307.113 197.73Z" fill="black"/>
<path d="M38.9332 166.2C54.9663 137.048 115.063 115.303 183.673 115.822C238.829 116.221 287.33 131.19 307.232 153.934C314.492 162.229 317.598 171.062 316.431 180.199C312.031 215.055 245.356 242.898 167.742 242.362C112.58 241.945 64.0841 226.994 44.1821 204.251C36.9104 195.949 33.8231 187.11 34.9711 177.979L35.3627 178.025L34.9711 177.979C35.5383 173.838 36.8826 169.842 38.9332 166.2ZM311.797 191.684C313.81 188.101 315.129 184.17 315.685 180.097C316.8 171.194 313.771 162.558 306.65 154.431C286.875 131.849 238.599 117.004 183.662 116.572C115.35 116.016 55.4889 137.613 39.6121 166.481C37.593 170.062 36.2735 173.995 35.724 178.069C34.5973 186.965 37.6377 195.608 44.7588 203.735C64.5157 226.322 112.81 241.161 167.747 241.594C236.079 242.114 295.914 220.565 311.797 191.684Z" fill="black"/>
<path d="M35.2054 172.417C50.5808 144.46 106.244 120.786 173.187 116.255C230.907 112.327 283.642 123.64 307.511 145.065C315.714 152.43 320.063 160.574 320.426 169.287C321.788 203.965 258.027 236.527 178.239 241.936C120.525 245.852 67.7786 234.532 43.9152 213.126C35.7114 205.761 31.3691 197.605 31.0061 188.892C30.8651 183.118 32.3181 177.418 35.2054 172.417ZM315.523 185.498C318.382 180.578 319.816 174.959 319.664 169.269C319.335 160.775 315.05 152.851 307.024 145.584C283.248 124.272 230.77 113.054 173.255 116.971C93.8864 122.349 30.4287 154.583 31.8804 188.818L31.4931 188.821L31.8804 188.818C32.2161 197.3 36.4944 205.236 44.5204 212.503C68.2374 233.782 120.775 245.033 178.278 241.109C244.849 236.635 300.304 213.171 315.523 185.498Z" fill="black"/>
<path d="M32.5354 178.506C33.3299 177.061 34.2333 175.615 35.234 174.16C53.4219 148.105 103.371 125.869 162.494 117.484C243.497 106.019 315.332 124.305 322.641 158.244C324.439 166.62 322.262 175.293 316.192 184C298.023 210.05 248.074 232.286 188.951 240.671C107.94 252.148 36.1063 233.863 28.8039 199.911C27.2775 192.949 28.5238 185.8 32.5354 178.506ZM318.19 179.301C322.098 172.196 323.351 165.174 321.872 158.407C314.651 124.84 243.206 106.83 162.585 118.244C103.67 126.588 53.925 148.706 35.894 174.616C29.934 183.152 27.8072 191.621 29.5532 199.784L29.1871 199.86L29.5532 199.784C36.7738 233.351 108.219 251.36 188.84 239.947C247.762 231.591 297.506 209.473 315.531 183.575C316.495 182.2 317.382 180.773 318.19 179.301Z" fill="black"/>
<path d="M31.025 184.368C45.7426 157.607 92.9704 132.209 151.722 119.533C232.943 102.003 309.804 114.432 323.026 147.274C326.28 155.387 325.543 164.081 320.71 173.206C306.425 200.189 258.901 225.903 199.673 238.687C118.452 256.216 41.5843 243.8 28.3431 210.993L28.6997 210.85L28.3431 210.993C25.0819 202.892 25.8142 194.18 30.6526 185.073L31.025 184.368ZM319.714 173.445L320.066 172.805C324.774 163.936 325.535 155.424 322.35 147.52C309.236 115.045 232.711 102.847 151.892 120.29C92.8783 133.022 45.5409 158.592 31.3606 185.386C26.6643 194.262 25.9035 202.773 29.0941 210.666C42.209 243.141 118.734 255.338 199.534 237.901C258.066 225.259 305.101 200.016 319.714 173.445Z" fill="black"/>
<path d="M30.7115 189.764C44.8169 164.116 86.965 138.16 140.989 122.406C221.413 98.9168 302.424 105.176 321.584 136.395C326.48 144.332 327.043 153.185 323.361 162.743C312.786 190.193 268.431 218.899 210.392 235.838C129.96 259.338 48.9568 253.067 29.7895 221.86C24.9005 213.912 24.3307 205.07 28.0192 195.501C28.7875 193.53 29.6869 191.614 30.7115 189.764ZM320.025 168.079C321.031 166.26 321.913 164.375 322.665 162.437C326.253 153.106 325.682 144.463 320.927 136.805C301.93 105.876 221.308 99.7535 141.196 123.152C87.3449 138.816 45.3656 164.634 31.3709 190.08C30.3644 191.899 29.4824 193.784 28.7308 195.722C25.1357 205.065 25.7137 213.696 30.4688 221.354C49.4589 252.295 130.081 258.418 210.188 235.001C264.027 219.33 306.024 193.537 320.025 168.079Z" fill="black"/>
<path d="M31.5733 194.51C45.0601 169.987 82.0575 144.052 130.494 125.996C209.057 96.7173 293.293 96.5769 318.281 125.788C324.843 133.5 326.904 142.606 324.269 152.786C317.173 180.253 276.602 211.394 220.924 232.177C142.35 261.449 58.1255 261.596 33.1311 232.396C26.5687 224.685 24.5085 215.578 27.1317 205.392C28.1571 201.595 29.649 197.94 31.5733 194.51ZM319.156 163.345C321.057 159.958 322.525 156.346 323.526 152.593C326.096 142.671 324.129 133.816 317.7 126.255C292.977 97.2358 209.081 97.4865 130.729 126.665C75.279 147.341 34.8912 178.29 27.8521 205.542C25.2815 215.464 27.2486 224.318 33.6659 231.873L33.3715 232.128L33.6659 231.873C58.4007 260.899 142.297 260.648 220.637 231.464C268.914 213.474 305.767 187.69 319.156 163.345Z" fill="black"/>
<path d="M33.7419 198.062C38.4177 189.56 45.6228 180.753 55.1576 171.947C71.5098 156.834 94.0548 142.444 120.298 130.366C196.052 95.502 282.507 88.886 313.099 115.597C321.673 123.103 325.206 132.449 323.63 143.396C321.717 156.641 312.258 171.426 296.289 186.179C279.925 201.284 257.392 215.681 231.142 227.771C155.419 262.636 68.9398 269.239 38.362 242.475C29.8004 234.975 26.2669 225.628 27.8426 214.681C28.804 208.834 30.8018 203.206 33.7419 198.062ZM317.059 159.554C319.951 154.545 321.923 149.059 322.882 143.355C324.41 132.69 320.959 123.559 312.602 116.248C282.247 89.6681 196.141 96.3222 120.657 131.088C68.603 155.02 32.4467 187.957 28.5629 214.831C27.028 225.507 30.4738 234.62 38.8428 241.937C69.1979 268.517 155.304 261.863 230.781 227.109C272.731 207.799 304.341 182.68 317.059 159.554Z" fill="black"/>
<path d="M37.0935 200.244C49.0044 178.587 75.061 155.287 110.575 135.445C182.418 95.3145 270.103 82.1414 305.989 106.073C316.565 113.138 321.922 123.04 321.474 134.715C320.462 161.812 289.571 195.531 240.809 222.708C168.983 262.863 81.3283 276.037 45.3686 252.127L45.5509 251.796L45.3686 252.127C34.7866 245.074 29.4289 235.172 29.8837 223.485C30.1887 216.111 32.6652 208.296 37.0935 200.244ZM313.669 157.551C318.039 149.606 320.475 141.893 320.756 134.675C321.193 123.133 316.094 113.743 305.618 106.748C269.908 82.9443 182.58 96.1436 110.972 136.126C75.5695 155.906 49.62 179.096 37.7938 200.599C33.4241 208.544 30.976 216.251 30.7006 223.487C30.2571 235.041 35.3432 244.454 45.8488 251.451C81.552 275.266 168.875 262.048 240.495 222.073C275.867 202.291 301.817 179.102 313.669 157.551Z" fill="black"/>
<path d="M41.5686 200.948C52.3919 181.268 73.2684 160.146 101.449 141.206C168.429 96.1959 256.223 76.4821 297.164 97.2558C310.101 103.816 317.301 113.96 318.132 126.677C319.769 153.025 293.642 187.623 249.952 216.972C182.978 261.97 95.178 281.696 54.2369 260.922C41.3063 254.35 34.1063 244.206 33.2575 231.494C32.7012 222.15 35.6164 211.77 41.5686 200.948ZM309.174 156.884C315.035 146.227 317.934 135.961 317.361 126.732C316.603 114.332 309.499 104.379 296.805 97.9372C256.089 77.2873 168.641 96.9906 101.859 141.863C58.4112 171.053 32.3948 205.449 34.0507 231.483C34.8206 243.89 41.9252 253.842 54.6069 260.277C95.3348 280.934 182.777 261.242 249.565 216.358C277.629 197.461 298.423 176.433 309.181 156.872L309.174 156.884Z" fill="black"/>
<path d="M46.9994 199.323C56.2923 182.426 72.0003 164.584 93.057 147.541C154.194 98.1141 241.029 71.9504 286.584 89.2164C302.066 95.0782 311.417 105.465 313.634 119.253C317.79 145.12 297.138 179.274 258.382 210.596C197.207 260.064 110.404 286.199 64.8155 268.992C49.3339 263.13 39.9829 252.744 37.766 238.955C35.8979 227.085 39.1847 213.532 46.9994 199.323ZM303.73 158.532C311.46 144.477 314.71 131.103 312.869 119.465C310.709 105.939 301.512 95.7762 286.311 90.0222C240.989 72.8078 154.5 98.961 93.5447 148.225C55.0071 179.375 34.4451 213.254 38.5626 238.853C40.7114 252.373 49.9142 262.524 65.1275 268.284C110.437 285.492 196.932 259.357 257.894 210.081C278.865 193.052 294.516 175.287 303.756 158.485L303.73 158.532Z" fill="black"/>
<path d="M53.3758 195.474C60.7672 182.034 71.5443 168.051 85.4689 154.518C139.902 101.173 224.595 68.773 274.317 82.2232C292.462 87.1437 304.121 97.6273 308.036 112.566C314.542 137.442 298.765 171.517 265.891 203.761C211.458 257.106 126.765 289.506 77.0492 276.044C58.8981 271.135 47.2339 260.633 43.3307 245.702C39.5769 231.284 43.2688 213.851 53.3758 195.474ZM297.386 162.322C307.395 144.123 311.025 126.887 307.322 112.713C303.481 98.0617 292.003 87.7546 274.133 82.9237C224.63 69.5789 140.264 101.835 86.0306 155.012C53.3346 187.046 37.6318 220.929 44.0965 245.46C47.9316 260.123 59.4162 270.418 77.2794 275.261C126.782 288.605 211.149 256.35 265.376 203.154C279.23 189.582 290.034 175.691 297.386 162.322Z" fill="black"/>
<path d="M60.3133 188.894C65.6515 179.315 71.8774 170.259 78.9091 161.845C125.748 105.218 207.221 66.7745 260.586 76.1826C281.454 79.8555 295.62 90.299 301.54 106.418C310.293 130.155 299.442 163.776 272.498 196.352C225.652 252.99 144.156 291.421 90.8209 282.014C69.9529 278.341 55.7753 267.891 49.8666 251.779C43.5327 234.615 47.4582 212.268 60.3133 188.894ZM290.442 168.944C303.186 145.771 307.091 123.659 300.846 106.699C295.004 90.8856 281.037 80.6133 260.452 76.9878C207.363 67.639 126.198 105.943 79.5052 162.389C52.7388 194.753 41.9229 228.086 50.5353 251.545C56.3651 267.352 70.3371 277.642 90.9225 281.268C144.012 290.616 225.183 252.3 271.869 195.867C278.887 187.476 285.104 178.446 290.438 168.895L290.442 168.944Z" fill="black"/>
<path d="M66.898 180.455C68.8517 176.903 71.0334 173.245 73.4017 169.612C111.897 110.309 189.081 66.2216 245.439 71.3381C268.643 73.4579 285.949 83.9165 294.163 100.803C305.281 123.636 299.395 155.639 278.017 188.56C239.515 247.876 162.337 291.951 105.979 286.834C82.7688 284.726 65.4695 274.256 57.255 257.369C47.3712 237.035 50.9366 209.478 66.898 180.455ZM283.792 177.301C299.623 148.516 303.191 121.206 293.407 101.112C285.191 84.2556 268.566 74.1868 245.307 72.083C189.203 66.9825 112.34 110.907 73.98 169.992C52.7559 202.69 46.8929 234.397 57.8863 257.007C66.102 273.864 82.7336 283.92 105.986 286.036C162.091 291.137 238.954 247.212 277.308 188.109C279.722 184.533 281.819 180.889 283.792 177.301Z" fill="black"/>
<path d="M73.1706 169.669C104.807 112.146 172.902 67.1011 229.071 67.764C254.712 68.0626 274.883 77.9688 285.874 95.6728C299.214 117.214 297.958 148.093 282.388 180.446C252.937 241.824 181.083 291.094 122.343 290.42C96.7089 290.11 76.5373 280.204 65.5466 262.5C52.1865 240.994 53.462 210.079 68.9993 177.647C70.3372 174.99 71.7184 172.31 73.1706 169.669ZM277.544 188.13C278.994 185.494 280.365 182.834 281.655 180.151C297.121 147.987 298.416 117.346 285.193 96.0693C274.35 78.6011 254.404 68.8186 229.041 68.519C173.133 67.8603 105.347 112.736 73.8288 170.016C72.3788 172.653 71.0085 175.312 69.718 177.996C54.2753 210.172 52.9477 240.873 66.2118 262.048C77.0661 279.523 97.0125 289.305 122.375 289.605C178.264 290.299 246.055 245.442 277.568 188.143L277.544 188.13Z" fill="black"/>
<path d="M77.8887 158.338C105.455 108.215 160.327 68.7764 211.657 65.4979C239.344 63.76 262.413 72.7463 276.606 90.8852C292.292 110.94 295.562 140.607 285.46 172.219C265.592 234.781 200.221 288.819 139.755 292.687C112.068 294.424 88.9865 285.432 74.8052 267.299C59.1193 247.244 55.8564 217.566 65.9461 185.947C69.0203 176.377 73.0201 167.131 77.8887 158.338ZM272.865 199.499C277.711 190.741 281.694 181.533 284.761 172.004C294.727 140.61 291.556 111.213 276.031 91.3706C261.999 73.4437 239.169 64.5274 211.735 66.2813C151.561 70.124 86.5155 123.879 66.705 186.194C56.7207 217.594 59.9101 246.985 75.4348 266.828C89.4602 284.767 112.297 293.671 139.724 291.929C190.787 288.658 245.399 249.384 272.841 199.486L272.865 199.499Z" fill="black"/>
<path d="M80.5874 147.314C104.09 104.58 147.773 70.8938 193.392 64.6133C222.583 60.618 248.462 68.3118 266.158 86.3108C284.617 105.084 292.103 132.612 287.245 163.839C277.439 226.907 219.477 285.097 158.027 293.559C128.825 297.548 102.957 289.86 85.2607 271.861C66.8018 253.088 59.316 225.56 64.1739 194.333C66.8692 177.824 72.4235 161.913 80.5874 147.314ZM270.155 210.516C278.274 195.984 283.803 180.148 286.493 163.719C291.317 132.751 283.895 105.442 265.623 86.8643C248.095 69.0353 222.515 61.4138 193.519 65.3926C148.15 71.6406 104.673 105.148 81.2877 147.669C73.1685 162.202 67.6401 178.037 64.9494 194.466C60.1375 225.441 67.5474 252.743 85.8257 271.339C103.365 289.175 128.939 296.778 157.941 292.818C203.293 286.545 246.77 253.038 270.155 210.516Z" fill="black"/>
<path d="M80.9375 137.39C100.552 101.725 135.066 73.5136 174.485 65.1494C204.487 58.8089 232.794 64.7536 254.178 81.9122C275.562 99.0707 287.349 125.093 287.656 155.46C288.281 218.249 238.618 279.955 176.935 293.023C146.945 299.37 118.67 293.366 97.2347 276.272C75.7997 259.178 64.0576 233.103 63.7634 202.713C63.5375 180.057 69.8602 157.531 80.9375 137.39ZM269.841 220.461C280.86 200.426 287.148 178.021 286.917 155.485C286.619 125.355 274.814 99.4767 253.743 82.5362C232.671 65.5956 204.455 59.6242 174.684 65.9376C113.336 78.9286 63.941 140.288 64.5477 202.774C64.8525 232.893 76.6502 258.782 97.7221 275.723C118.794 292.664 147.016 298.623 176.781 292.322C215.963 283.966 250.301 255.905 269.806 220.442L269.841 220.461Z" fill="black"/>
<path d="M78.8461 129.238C94.9052 100.038 122.004 76.6937 155.157 67.1506C185.102 58.5273 215.328 62.3036 240.3 77.7648C264.764 92.9157 281.221 117.574 286.653 147.181C297.94 208.91 257.367 273.394 196.244 291.027C166.317 299.645 136.085 295.881 111.119 280.407C86.6555 265.257 70.1921 240.61 64.7665 210.991C59.5901 182.744 65.2811 153.903 78.8461 129.238ZM271.898 228.563C285.378 204.052 291.032 175.391 285.897 147.32C280.47 117.901 264.174 93.455 239.893 78.4202C215.111 63.0632 185.095 59.3255 155.37 67.8849C94.6108 85.3633 54.2794 149.548 65.5158 210.864C70.9497 240.271 87.2453 264.717 111.52 279.764C136.297 295.103 166.312 298.84 196.037 290.281C228.988 280.796 255.93 257.597 271.898 228.563Z" fill="black"/>
<path d="M74.423 123.305C87.1624 100.204 107.428 82.1615 131.852 72.1739C156.277 62.1862 183.39 60.8551 208.686 68.4017C233.983 75.9483 255.94 91.9182 270.909 113.658C285.879 135.398 292.959 161.599 290.975 187.907C288.99 214.216 278.06 239.048 259.999 258.279C241.939 277.509 217.837 289.979 191.696 293.618C165.556 297.256 138.952 291.844 116.304 278.279C93.6564 264.715 76.3287 243.816 67.1999 219.054C61.4402 203.511 59.1038 186.909 60.3504 170.385C61.597 153.86 66.3972 137.801 74.423 123.305ZM276.314 234.508C289.277 210.934 293.541 183.551 288.36 157.142C283.179 130.734 268.882 106.978 247.968 90.0252C227.054 73.072 200.85 63.9985 173.935 64.3895C147.019 64.7804 121.102 74.611 100.71 92.1642C80.3177 109.717 66.747 133.878 62.3678 160.425C57.9886 186.972 63.0792 214.219 76.7506 237.407C90.422 260.595 111.805 278.25 137.165 287.289C162.526 296.327 190.251 296.174 215.499 286.857C241.423 277.308 263.02 258.718 276.314 234.508Z" fill="black"/>
</g>
<defs>
<clipPath id="clip0_1_1364">
<rect width="269.827" height="252.656" fill="white" transform="translate(351.413 121.755) rotate(118.81)"/>
</clipPath>
</defs>
</svg>
