<svg width="330" height="309" viewBox="0 0 330 309" fill="none" xmlns="http://www.w3.org/2000/svg">
<g opacity="0.3" clip-path="url(#clip0_1_1342)">
<path d="M213.135 304.716C168.099 304.716 110.22 241.603 82.3717 161.107C62.9522 104.99 62.3241 52.6274 80.719 24.4613C88.619 12.4043 99.8245 5.47447 113.179 4.41597C158.678 0.843519 218.953 65.2137 247.611 147.893C267.031 204.026 267.659 256.389 249.264 284.539C241.381 296.596 230.159 303.526 216.821 304.584C215.598 304.667 214.309 304.716 213.135 304.716ZM116.881 5.22638C115.658 5.22638 114.468 5.22638 113.261 5.35869C100.039 6.40066 89.3627 12.9998 81.5288 24.9741C63.2662 52.8921 63.9273 104.941 83.1815 160.81C110.914 240.925 168.396 303.774 213.053 303.79C214.259 303.79 215.466 303.79 216.656 303.641C229.878 302.599 240.571 296 248.405 284.026C266.667 256.108 266.006 204.059 246.669 148.19C219.019 68.075 161.521 5.22638 116.881 5.22638Z" fill="black"/>
<path d="M222.573 307.247C179.9 307.247 121.277 249.84 86.9171 172.172C61.3164 114.285 54.9038 56.729 70.6212 25.5197C76.852 13.1154 86.0577 5.47434 98.0069 2.79501C140.978 -6.8969 206.145 53.2393 243.133 136.762C268.75 194.649 275.146 252.205 259.445 283.414C253.214 295.818 243.992 303.459 232.06 306.155C228.947 306.864 225.765 307.23 222.573 307.247ZM107.527 2.69578C104.381 2.68533 101.244 3.02369 98.1722 3.70467C86.5205 6.31784 77.5296 13.8101 71.4145 25.9332C55.8458 56.911 62.2419 114.169 87.7435 171.792C121.955 249.112 180.197 306.304 222.457 306.304C225.603 306.315 228.74 305.977 231.812 305.295C243.463 302.682 252.471 295.19 258.569 283.067C274.155 252.089 267.742 194.847 242.24 137.208C208.029 59.888 149.853 2.69578 107.527 2.69578Z" fill="black"/>
<path d="M231.795 308.669C191.105 308.669 132.383 257.084 92.503 183.253C60.4235 123.911 47.8794 63.1131 60.5227 28.381C65.1338 15.712 72.7694 7.17784 83.2477 3.04306C123.194 -12.7849 192.328 42.2573 237.497 125.747C269.56 185.105 282.12 245.887 269.477 280.619C264.866 293.304 257.214 301.822 246.752 305.973L246.57 305.527L246.752 305.973C241.98 307.806 236.906 308.72 231.795 308.669ZM98.2875 1.24031C93.2608 1.19538 88.2707 2.09872 83.5782 3.90309C73.3809 7.95517 65.9106 16.2909 61.3987 28.7117C48.8545 63.2123 61.3987 123.696 93.3128 182.823C132.978 256.356 191.402 307.776 231.696 307.776C236.723 307.829 241.715 306.926 246.405 305.113C256.602 301.078 264.073 292.725 268.585 280.305C281.145 245.821 268.585 185.32 236.67 126.193C196.955 52.6604 138.598 1.24031 98.2875 1.24031Z" fill="black"/>
<path d="M240.654 309C201.633 309 143.457 263.303 99.147 194.235C60.9195 134.695 41.9627 71.5151 50.8543 33.3098C53.9119 20.1778 60.0766 10.7174 69.1996 5.19335C105.56 -16.7044 178.032 32.4333 230.853 114.748C269.064 174.289 288.021 237.485 279.146 275.674C276.088 288.806 269.907 298.266 260.784 303.79C254.679 307.344 247.714 309.147 240.654 309ZM89.462 0.893176C82.5041 0.729877 75.6376 2.50498 69.6293 6.02031C60.7211 11.379 54.7548 20.6409 51.6972 33.5248C42.8716 71.5648 61.7789 134.413 99.8742 193.739C152.414 275.624 224.358 324.63 260.189 302.897L260.42 303.311L260.189 302.897C269.08 297.538 275.063 288.277 278.121 275.393C286.946 237.435 268.039 174.504 229.944 115.195C185.915 46.4915 128.086 0.893176 89.462 0.893176Z" fill="black"/>
<path d="M248.752 308.272C246.736 308.272 244.653 308.157 242.505 307.942C203.864 303.807 150.597 263.385 106.766 204.969C46.7392 124.92 23.9977 37.1634 56.0606 9.32807C63.9772 2.46435 74.5547 -0.31422 87.4625 1.05852C126.087 5.17676 179.354 45.5983 223.184 104.014C283.228 184.064 305.969 271.82 273.89 299.655C267.329 305.395 258.933 308.272 248.752 308.272ZM81.2482 1.68701C71.3318 1.68701 63.0682 4.48211 56.6887 10.0558C24.9729 37.5768 47.7805 124.754 107.527 204.423C151.192 262.641 204.211 302.914 242.604 306.966C255.264 308.322 265.593 305.609 273.312 298.928L273.609 299.275L273.312 298.928C305.027 271.407 282.22 184.229 222.474 104.56C178.792 46.3426 125.773 6.06986 87.3963 2.01778C85.3545 1.79569 83.3021 1.68527 81.2482 1.68701Z" fill="black"/>
<path d="M255.925 306.436C218.573 306.436 163.521 270.795 115.311 215.306C48.6565 138.598 16.6762 48.9061 44.0784 15.3813C50.8546 7.11178 60.6057 2.77854 73.2325 2.58007C110.568 1.98467 166.132 37.7587 214.739 93.694C281.394 170.402 313.39 260.094 286.038 293.619L285.674 293.321L286.038 293.619C279.278 301.888 269.51 306.238 256.9 306.42L255.925 306.436ZM74.0754 3.50626H73.1829C60.9031 3.68819 51.3339 7.88912 44.7395 15.9602C17.6678 49.1542 49.6977 138.35 116.022 214.677C164.447 270.414 219.747 306.073 256.817 305.477C269.097 305.279 278.666 301.078 285.244 293.007C312.316 259.813 280.286 170.617 213.979 94.3059C165.934 39.0322 111.163 3.50626 74.0754 3.50626Z" fill="black"/>
<path d="M261.891 303.592C226.093 303.592 173.437 273.722 124.715 225.114C52.1437 152.772 11.1064 62.2698 33.2695 23.3367C38.8888 13.4133 48.0449 7.59151 60.4569 5.90452C96.1062 1.05857 153.01 31.6724 205.368 83.8864C277.956 156.228 318.976 246.73 296.83 285.663C291.194 295.587 282.055 301.409 269.626 303.096C267.062 303.434 264.478 303.599 261.891 303.592ZM68.142 6.33453C65.5996 6.32908 63.0597 6.49485 60.5395 6.83071C48.425 8.48462 39.5003 14.1906 34.0958 23.7998C12.1476 62.3855 53.1022 152.391 125.393 224.452C173.917 272.928 226.325 302.699 261.842 302.699C264.384 302.705 266.924 302.539 269.444 302.202C281.575 300.549 290.483 294.843 295.888 285.233C317.853 246.648 276.898 156.642 204.591 84.5975C156.067 36.138 103.676 6.33453 68.142 6.33453Z" fill="black"/>
<path d="M266.469 299.87C232.241 299.87 182.643 275.508 134.747 234.243C57.0686 167.31 7.27199 77.1218 23.8488 33.1278C28.2451 21.5505 36.7897 13.9756 49.2512 10.8001C82.8677 2.21626 140.151 27.3392 195.237 74.7568C272.915 141.707 322.711 231.878 306.151 275.872C301.755 287.45 293.21 295.024 280.749 298.217C276.075 299.356 271.279 299.911 266.469 299.87ZM63.5804 10.0558C58.8305 10.0147 54.0942 10.5704 49.4826 11.7097C37.3351 14.8025 29.0053 22.1293 24.6917 33.4752C8.16443 77.0722 57.8785 166.83 135.325 233.598C190.163 280.834 247.132 305.874 280.484 297.357C292.632 294.264 300.961 286.937 305.275 275.608L305.721 275.773L305.275 275.608C321.802 231.994 272.088 142.236 194.642 75.4845C146.911 34.3517 97.5604 10.0558 63.5804 10.0558Z" fill="black"/>
<path d="M268.998 295.455C257.131 295.455 243.447 292.924 228.391 287.896C202.558 279.279 173.851 263.6 145.44 242.596C63.4319 181.963 5.3881 93.2144 15.9821 44.6887C18.9735 31.077 26.9066 21.7821 39.5665 17.0188C54.8873 11.2632 76.3066 12.6855 101.527 21.1039C127.359 29.7374 156.067 45.3999 184.494 66.4045C266.486 127.004 324.53 215.786 313.87 264.328C310.878 277.923 302.945 287.218 290.285 291.981C283.452 294.397 276.244 295.573 268.998 295.455ZM60.7544 14.5379C53.6824 14.3915 46.6412 15.5117 39.9632 17.8457C27.6338 22.4932 19.8825 31.5732 16.9737 44.8376C6.37975 93.0325 64.2583 181.384 146.002 241.785C202.327 283.464 258.933 302.798 290.021 291.121C302.367 286.474 310.101 277.41 313.01 264.129C323.604 215.935 265.726 127.583 183.998 67.1819C138.581 33.6075 93.0322 14.5379 60.7544 14.5379Z" fill="black"/>
<path d="M269.361 290.575C239.133 290.575 198.806 276.385 156.612 250.021C71.2655 196.683 5.47043 110.481 9.96585 57.9199C11.3046 42.4227 18.7584 30.8453 31.534 24.4447C61.1674 9.55953 115.509 22.7908 173.371 59.028C258.734 112.333 324.513 198.502 320.084 251.13H319.621H320.084C318.761 266.627 311.308 278.204 298.516 284.605C290.434 288.624 280.6 290.575 269.361 290.575ZM60.6054 19.3507C49.5156 19.3507 39.8141 21.2857 31.9141 25.2386C19.2873 31.5731 12.2301 42.5716 10.9079 57.9199C6.44555 110.216 72.0589 196.021 157.108 249.195C199.17 275.475 239.315 289.616 269.328 289.616C280.418 289.616 290.12 287.698 298.036 283.728C310.68 277.394 317.77 266.395 319.075 251.014C323.554 198.717 257.924 112.929 172.875 59.7392C130.83 33.4916 90.6851 19.3507 60.6054 19.3507Z" fill="black"/>
<path d="M267.477 285.366C240.009 285.366 205.07 275.442 168.165 256.406C80.4547 211.155 7.58603 128.691 5.71845 72.5736C5.12347 54.8436 11.7509 41.1493 24.8901 32.7639C52.1601 15.4806 104.634 23.0886 161.835 52.6109C249.529 97.8618 322.414 180.326 324.282 236.443C324.86 254.173 318.233 267.867 305.11 276.269C295.425 282.372 282.583 285.366 267.477 285.366ZM62.5392 24.5606C47.6647 24.5606 34.9552 27.5045 25.4024 33.5578C12.5607 41.6785 6.08201 55.1579 6.66047 72.557C8.52805 128.36 81.1819 210.46 168.628 255.579C225.515 284.936 277.708 292.544 304.631 275.426C317.472 267.288 323.951 253.809 323.373 236.426C321.505 180.607 248.868 98.5069 161.405 53.3882C124.616 34.4509 89.8257 24.5606 62.5227 24.5606H62.5392Z" fill="black"/>
<path d="M262.535 280.503C238.951 280.503 210.574 274.185 179.899 261.665C90.8997 225.279 11.6846 147.645 3.33829 88.6495C0.495601 68.6042 6.11485 52.462 19.5846 41.9597C44.8548 22.2616 93.6267 24.2628 150.034 47.3349C239.1 83.7374 318.265 161.355 326.694 220.35C329.537 240.396 323.918 256.538 310.448 267.04C298.829 276.038 282.368 280.503 262.535 280.503ZM67.5137 29.423C47.8958 29.423 31.6495 33.8224 20.2622 42.6543C7.04038 52.9416 1.56987 68.7861 4.36297 88.4676C12.6266 147.181 91.627 224.452 180.345 260.739C236.439 283.679 284.864 285.746 309.87 266.246C323.091 255.976 328.545 240.131 325.752 220.433C317.489 161.736 238.505 84.4486 149.77 48.1618C119.161 35.7244 90.8998 29.423 67.4476 29.423H67.5137Z" fill="black"/>
<path d="M254.652 275.938C235.894 275.938 214.557 272.631 191.849 265.684C102.601 238.792 17.9653 167.128 3.07421 105.916C-2.34673 83.5721 2.01646 64.8995 15.7176 51.8997C38.5417 30.2666 84.3553 27.0911 138.284 43.3159C227.531 70.2085 312.167 141.872 327.042 203.084C332.479 225.428 328.1 244.117 314.398 257.1C301.16 269.62 280.303 275.938 254.652 275.938ZM75.3149 33.9879C49.9125 33.9879 29.303 40.2562 16.296 52.5778C2.85936 65.3295 -1.42122 83.7044 3.93361 105.701C18.8082 166.615 103.097 238.014 192.047 264.791C245.645 280.95 291.211 277.807 313.688 256.422C327.141 243.671 331.405 225.296 326.067 203.299C311.192 142.385 226.903 70.9859 137.937 44.2256C115.228 37.3784 93.9742 33.9879 75.3149 33.9879Z" fill="black"/>
<path d="M243.513 272.382C230.102 272.307 216.728 270.973 203.566 268.396C115.278 251.576 26.0636 186.925 4.6938 124.192C-3.669 99.6646 -0.826306 78.3291 12.9574 62.4847C33.2364 39.1149 75.6619 30.9281 126.45 40.6035C214.755 57.4237 303.97 122.108 325.323 184.808C333.686 209.335 330.843 230.687 317.059 246.515C302.399 263.418 276.138 272.382 243.513 272.382ZM86.5038 37.5272C54.1599 37.5272 28.1625 46.3756 13.6681 63.0636C0.165318 78.6434 -2.61129 99.6646 5.63582 123.861C26.9064 186.263 115.79 250.667 203.798 267.437C254.256 277.046 296.351 268.992 316.415 245.936C329.917 230.373 332.711 209.335 324.463 185.139C303.193 122.737 214.293 58.3334 126.301 41.5627C113.173 38.9876 99.8323 37.6476 86.4542 37.5603L86.5038 37.5272Z" fill="black"/>
<path d="M230.589 270.298C225.63 270.298 220.424 270.117 215.135 269.72C128.896 263.418 36.1617 206.689 8.42893 143.278C-2.97488 117.163 -1.9667 92.4535 11.2882 73.6982C29.2037 48.3272 66.9686 35.7741 114.848 39.2803C201.104 45.5817 293.822 102.311 321.555 165.722C332.975 191.837 331.95 216.546 318.695 235.302C302.73 257.878 271.097 270.298 230.589 270.298ZM99.3785 39.7269C59.2007 39.7269 27.832 51.9989 12.065 74.3267C-1.15686 93.0655 -2.14852 116.816 9.30488 142.98C36.9054 206.11 129.276 262.591 215.202 268.876C262.751 272.349 300.185 259.945 317.935 234.839C331.157 216.1 332.132 192.35 320.695 166.185C293.095 103.055 200.724 46.5741 114.782 40.3058C109.526 39.8261 104.386 39.7269 99.3785 39.7269Z" fill="black"/>
<path d="M215.334 269.935C135.044 269.935 46.6398 223.51 14.2464 162.927C-0.545528 135.273 -1.81813 107.818 10.6765 85.6065C25.8981 58.6147 59.7294 41.7613 103.576 39.3797C186.708 34.7653 281.856 82.7287 315.753 146.073C330.529 173.727 331.801 201.182 319.307 223.394C304.135 250.386 270.254 267.239 226.341 269.703C222.705 269.836 219.019 269.935 215.334 269.935ZM114.666 40.0413C110.986 40.0413 107.328 40.1405 103.692 40.339C60.1095 42.7206 26.5096 59.392 11.5028 86.1027C-0.826498 108.017 0.446107 135.158 15.0727 162.513C47.3174 222.815 135.358 269.009 215.317 269.025C218.997 269.025 222.655 268.926 226.291 268.727C269.874 266.313 303.556 249.641 318.431 222.947C330.76 201.016 329.488 173.876 314.861 146.52C282.666 86.2184 194.641 40.0082 114.666 40.0082V40.0413Z" fill="black"/>
<path d="M200.41 271.555C130.45 271.555 55.8456 235.996 22.0804 182.922C3.90038 154.277 -0.0661902 124.258 11.0071 98.3579C23.2538 69.7287 53.1186 48.7406 92.9493 40.9342C171.702 25.3543 268.138 63.5597 307.92 126.077C326.1 154.723 330.066 184.758 318.993 210.642C306.746 239.271 276.865 260.259 237.034 268.082C224.968 270.428 212.701 271.591 200.41 271.555ZM129.607 38.3541C117.365 38.323 105.149 39.4807 93.1311 41.8107C53.6144 49.6337 23.981 70.3572 11.8665 98.6887C0.925478 124.291 4.82592 154.012 22.8737 182.377C62.4565 244.597 158.397 282.62 236.852 267.123C276.385 259.316 306.002 238.576 318.117 210.245C329.074 184.642 325.157 154.922 307.126 126.557C273.526 73.7643 199.253 38.3872 129.607 38.3872V38.3541Z" fill="black"/>
<path d="M187.006 275.161C127.359 275.161 65.5141 248.202 31.8977 203.018C10.4122 174.091 3.40465 141.823 12.2633 112.251C21.502 81.4055 46.5904 57.1592 82.9173 43.961C156.282 17.3 252.801 45.1187 298.086 105.983C319.571 134.926 326.579 167.177 317.72 196.749C308.482 227.595 283.393 251.841 247.066 265.039C227.786 271.881 207.462 275.306 187.006 275.161ZM143.01 34.7653C122.651 34.6297 102.424 38.0379 83.2314 44.8376C47.2019 57.92 22.3118 81.9679 13.1722 112.499C4.39626 141.79 11.3047 173.694 32.6579 202.422C66.0926 247.359 127.624 274.202 186.973 274.202C207.332 274.337 227.56 270.929 246.752 264.129C282.782 251.031 307.672 226.999 316.828 196.451C325.604 167.144 318.679 135.257 297.342 106.512C263.891 61.6082 202.36 34.7653 143.01 34.7653Z" fill="black"/>
<path d="M176.164 280.635C126.384 280.635 75.8104 260.276 43.6153 222.964C19.1384 194.549 8.82539 160.71 14.6099 127.682C20.3945 94.6532 41.3345 66.6856 73.6949 48.4595C140.614 10.7834 236.009 27.6368 286.368 86.0364C310.845 114.434 321.075 148.273 315.39 181.318C309.704 214.363 288.682 242.314 256.288 260.54C232.142 274.136 204.277 280.635 176.164 280.635ZM153.852 29.2411C125.888 29.2411 98.1718 35.7079 74.1577 49.2368C42.0452 67.3141 21.2704 95.2156 15.5355 127.781C9.80049 160.347 20.0309 194.103 44.3425 222.285C94.4201 280.371 189.287 297.141 255.892 259.664C287.988 241.587 308.779 213.685 314.514 181.12C320.249 148.554 310.002 114.798 285.707 86.6152C253.66 49.5511 203.351 29.2907 153.852 29.2907V29.2411Z" fill="black"/>
<path d="M168.661 287.681C127.905 287.681 86.9169 272.399 57.1513 242.496C30.2614 215.488 16.4942 180.871 18.3452 144.998C20.1632 109.853 36.8889 77.684 65.4149 54.4135C124.913 5.93741 217.929 11.4119 272.849 66.5201C299.722 93.5119 313.506 128.128 311.638 164.002C309.82 199.147 293.111 231.316 264.569 254.586C237.348 276.782 203.087 287.681 168.661 287.681ZM161.323 22.2615C127.111 22.2615 93.065 33.0946 66.0099 55.1412C37.6821 78.296 21.0888 110.167 19.2873 145.048C17.4362 180.656 31.1208 215.025 57.8124 241.835C112.352 296.645 204.905 302.037 263.99 253.859C292.301 230.704 308.895 198.833 310.713 163.952C312.547 128.36 298.863 93.9916 272.171 67.1817C242.587 37.4609 201.848 22.2615 161.323 22.2615Z" fill="black"/>
<path d="M164.909 295.918C132.646 295.88 101.367 284.797 76.2691 264.509C51.1711 244.222 33.7652 215.951 26.9435 184.395C20.1217 152.839 24.2948 119.897 38.7694 91.0423C53.244 62.1877 77.1486 39.158 106.511 25.7793C135.874 12.4007 168.928 9.4788 200.179 17.499C231.431 25.5192 259 43.9987 278.305 69.867C297.61 95.7354 307.49 127.435 306.302 159.7C305.114 191.964 292.93 222.85 271.775 247.226C258.512 262.56 242.099 274.848 223.656 283.251C205.212 291.654 185.174 295.975 164.909 295.918V295.918ZM165.091 14.0252C132.187 14.0275 100.33 25.5972 75.0836 46.7136C49.837 67.83 32.8058 97.1509 26.9645 129.555C21.1232 161.959 26.8431 195.387 43.1253 224.001C59.4074 252.614 85.2169 274.594 116.046 286.101C146.875 297.608 180.764 297.912 211.794 286.959C242.823 276.006 269.022 254.492 285.813 226.175C302.605 197.858 308.922 164.538 303.661 132.034C298.401 99.5305 281.897 69.9092 257.032 48.3438C231.519 26.1906 198.869 14.0035 165.091 14.0252V14.0252Z" fill="black"/>
</g>
<defs>
<clipPath id="clip0_1_1342">
<rect width="330" height="309" fill="white"/>
</clipPath>
</defs>
</svg>
