<svg width="72" height="72" viewBox="0 0 72 72" fill="none" xmlns="http://www.w3.org/2000/svg">
<g filter="url(#filter0_d_1_1124)">
<mask id="path-1-inside-1_1_1124" fill="white">
<path fill-rule="evenodd" clip-rule="evenodd" d="M14.3707 0.22754C13.8941 0.390787 13.0833 1.14435 9.09787 5.12757C4.81754 9.40551 4.36948 9.89225 4.1835 10.4669C3.9979 11.0406 3.98188 12.5122 4.01204 26.2912L4.04533 41.4832L4.31592 41.9836C4.63494 42.5734 5.24858 43.1768 5.86009 43.502C6.26835 43.7191 6.73818 43.7373 12.7803 43.7704L19.2624 43.8061L19.6326 43.436C19.8361 43.2326 20.0027 42.9464 20.0027 42.8001C20.0027 42.5889 19.7297 41.9021 19.5927 41.7685C19.5773 41.7535 16.6733 41.7114 13.1395 41.6747L6.71428 41.6083L6.4124 41.2573L6.1104 40.9063V26.3399V11.7735H9.46683C13.4626 11.7735 13.852 11.7012 14.7636 10.7902C15.6752 9.87899 15.7474 9.49008 15.7474 5.49359V2.13609L24.0033 2.16999C31.7348 2.20176 32.2734 2.21803 32.4826 2.42718C32.6914 2.63596 32.7102 3.20676 32.7686 11.1633L32.8312 19.6762L33.1824 19.978C33.6412 20.3724 34.1913 20.3704 34.589 19.9728L34.8963 19.6658L34.895 11.0599L34.8938 2.45408L34.5983 1.81973C34.253 1.07855 33.5746 0.474975 32.7846 0.205899C31.9403 -0.0816908 15.2156 -0.0620512 14.3707 0.22754ZM47.7866 0.131593C47.0436 0.357512 46.4915 0.855509 42.1348 5.22865C38.906 8.46957 37.4872 9.97819 37.3476 10.3189C37.1792 10.7298 37.1491 11.4762 37.1491 15.2346V19.6658L37.4563 19.9728C37.8541 20.3704 38.404 20.3724 38.863 19.9782L39.2141 19.6763L39.2504 15.732L39.2867 11.7875L42.88 11.7493L46.4732 11.711L47.1225 11.3689C47.4796 11.1806 47.9144 10.8398 48.0886 10.6115C48.7648 9.72538 48.7886 9.55875 48.7886 5.71051V2.14134H56.9959H65.2033L65.5691 2.50699L65.9349 2.87264V21.8895V40.9063L65.6329 41.2573L65.331 41.6083L58.9058 41.6747C55.372 41.7114 52.468 41.7535 52.4526 41.7685C52.3156 41.9021 52.0426 42.5889 52.0426 42.8001C52.0426 42.9464 52.2092 43.2326 52.4127 43.436L52.7829 43.8061L59.265 43.7704C65.3071 43.7373 65.777 43.7191 66.1852 43.502C66.7968 43.1768 67.4104 42.5734 67.7294 41.9836L68 41.4832V21.9061V2.32898L67.7237 1.8126C67.3379 1.09193 66.4248 0.323361 65.7533 0.154485C65.1142 -0.00638464 48.3107 -0.0277756 47.7866 0.131593ZM13.5955 6.39126C13.5448 9.8626 13.8355 9.57201 10.3624 9.62267C8.91865 9.64382 7.73743 9.61605 7.73743 9.56113C7.73743 9.42928 13.4001 3.76756 13.5319 3.76756C13.588 3.76756 13.6166 4.94819 13.5955 6.39126ZM46.5255 9.10154C46.2691 9.58365 45.8882 9.64694 43.2455 9.64694H40.718L43.6582 6.70612L46.5983 3.76518L46.633 6.29957C46.6565 8.01598 46.6219 8.92015 46.5255 9.10154ZM10.178 14.9904C9.36458 15.1871 9.08273 16.2188 9.68736 16.7868L10.0103 17.09L19.1679 17.1279C25.592 17.1545 28.4673 17.1245 28.8 17.0276C29.7888 16.7394 29.8759 15.4665 28.9338 15.0731C28.5953 14.9318 26.8987 14.9035 19.4748 14.9154C14.4992 14.9234 10.3156 14.9572 10.178 14.9904ZM43.0841 15.0767C42.1699 15.4785 42.2745 16.7446 43.2453 17.0276C43.5781 17.1245 46.4533 17.1545 52.8774 17.1279L62.0351 17.09L62.358 16.7868C62.8029 16.3688 62.8029 15.6846 62.358 15.2666L62.0351 14.9634L52.7523 14.9354C45.1726 14.9125 43.3987 14.9384 43.0841 15.0767ZM9.92766 20.4244C9.28048 20.7781 9.1572 21.5852 9.67171 22.0994L9.97885 22.4065H19.4853H28.9917L29.3268 22.0084C29.7335 21.5254 29.6848 20.9923 29.1948 20.5613L28.8748 20.2799L19.5264 20.2836C13.0017 20.2864 10.1024 20.3288 9.92766 20.4244ZM42.8505 20.5613C42.3606 20.9923 42.3119 21.5254 42.7185 22.0084L43.0537 22.4065H52.56H62.0665L62.3736 22.0994C62.676 21.7973 62.7702 21.2836 62.6032 20.8484C62.3851 20.2806 62.3724 20.2799 52.4938 20.2799H43.1706L42.8505 20.5613ZM34.2079 22.5396C28.398 23.3288 23.7299 27.1558 21.8583 32.6641C20.8817 35.5385 20.8707 39.1218 21.8297 41.9892C22.57 44.2027 23.7709 46.1687 25.3844 47.8085C26.9895 49.4399 28.8938 50.6712 30.9794 51.4265L31.756 51.7077L31.7929 56.2901L31.8299 60.8727L32.1617 61.5801C32.5742 62.4593 33.3702 63.2502 34.2705 63.6751C34.8433 63.9455 35.1374 64 36.0227 64C36.9121 64 37.2025 63.9457 37.7942 63.6684C38.674 63.2561 39.4652 62.4605 39.8904 61.5607L40.2154 60.8727L40.2524 56.2901L40.2894 51.7077L41.0659 51.4284C46.0524 49.6349 49.7414 45.2451 50.7229 39.937C50.9673 38.6148 50.9718 36.1411 50.7322 34.7758C49.6742 28.7456 44.8764 23.8667 38.878 22.7207C37.5673 22.4704 35.3508 22.3843 34.2079 22.5396ZM36.8642 24.611L37.1426 24.6857L37.1771 33.3346L37.2116 41.9836L37.5592 42.7254C38.0285 43.727 38.6273 44.4279 39.5257 45.0276C40.5564 45.7156 41.5498 45.924 43.7976 45.924H45.5782L45.2747 46.2475C44.6739 46.8882 43.2793 47.9513 42.3306 48.4916C38.4046 50.7278 33.6407 50.7278 29.7147 48.4916C28.766 47.9513 27.3714 46.8882 26.7706 46.2475L26.4671 45.924H28.2241C29.1904 45.924 30.2844 45.867 30.6552 45.7972C32.245 45.4981 33.7145 44.3451 34.4297 42.8361L34.8337 41.9836L34.8682 33.3294C34.9005 25.2598 34.9174 24.6714 35.1185 24.6186C35.4486 24.5321 36.5516 24.5273 36.8642 24.611ZM32.7686 33.2128V41.3921L32.4198 42.0631C32.0398 42.7942 31.2309 43.4412 30.4128 43.6682C30.1597 43.7385 28.8203 43.7963 27.4363 43.7967L24.9201 43.7974L24.4121 42.7029C24.1327 42.1009 23.8118 41.2424 23.6991 40.7952C23.5862 40.348 23.4649 39.8835 23.4295 39.7632C23.3695 39.5595 23.5515 39.5441 26.0331 39.5424C28.9295 39.5404 29.2002 39.4882 29.4945 38.8746C29.6979 38.4507 29.6047 38.0117 29.2391 37.6714C28.9819 37.4318 28.8068 37.4177 26.0944 37.4177H23.2221L23.2859 36.3231C23.321 35.7211 23.4758 34.7642 23.6299 34.1965L23.9099 33.1645H26.2157C28.8231 33.1645 29.2423 33.0709 29.5082 32.4293C29.7032 31.959 29.5142 31.3698 29.0907 31.127C28.9308 31.0353 28.0676 30.9506 26.9089 30.9128L24.9917 30.8503L25.6108 29.9746C26.7157 28.4121 28.5244 26.8553 30.2655 25.9684C30.9018 25.6443 32.4576 25.0422 32.6747 25.0361C32.7263 25.0346 32.7686 28.7142 32.7686 33.2128ZM40.369 25.3523C42.8349 26.2797 45.0865 28.0141 46.5319 30.0997L47.052 30.8503L45.1356 30.9128C43.9776 30.9506 43.1145 31.0354 42.9547 31.127C42.5311 31.3698 42.3422 31.959 42.5372 32.4293C42.803 33.0709 43.2223 33.1645 45.8296 33.1645H48.1354L48.4155 34.1965C48.5695 34.7642 48.7244 35.7211 48.7594 36.3231L48.8232 37.4177H45.9274C43.2107 37.4177 43.0161 37.4329 42.7842 37.6647C42.4407 38.0081 42.3529 38.4623 42.5508 38.8746C42.8452 39.4882 43.1159 39.5404 46.0122 39.5424C48.4938 39.5441 48.6758 39.5595 48.6159 39.7632C48.5804 39.8835 48.4592 40.348 48.3463 40.7952C48.2335 41.2424 47.9126 42.1009 47.6333 42.7029L47.1252 43.7974L44.609 43.7967C43.225 43.7963 41.8856 43.7385 41.6325 43.6682C40.8144 43.4412 40.0055 42.7942 39.6255 42.0631L39.2767 41.3921V33.2128C39.2767 27.9706 39.3206 25.0334 39.399 25.0334C39.4663 25.0334 39.9027 25.1769 40.369 25.3523ZM9.67171 25.966C9.16521 26.4721 9.26621 27.2882 9.87409 27.6025C10.4006 27.8747 21.3445 27.8747 21.871 27.6025C22.4789 27.2882 22.5799 26.4721 22.0734 25.966L21.7663 25.6589H15.8726H9.97885L9.67171 25.966ZM49.9719 25.966C49.4654 26.4721 49.5664 27.2882 50.1743 27.6025C50.7008 27.8747 61.6447 27.8747 62.1712 27.6025C62.7791 27.2882 62.8801 26.4721 62.3736 25.966L62.0665 25.6589H56.1728H50.279L49.9719 25.966ZM10.178 31.0024C9.36458 31.199 9.08273 32.2308 9.68723 32.7987L10.01 33.1019L14.3493 33.1363C18.2988 33.1675 18.7277 33.1507 19.1252 32.9487C19.9504 32.5293 19.9504 31.5452 19.1252 31.132C18.734 30.936 18.2585 30.9147 14.5584 30.9276C12.2868 30.9355 10.3156 30.9691 10.178 31.0024ZM52.9201 31.1286C52.4052 31.3904 52.1889 31.878 52.364 32.3827C52.4329 32.5811 52.6681 32.8206 52.9201 32.9487C53.3176 33.1507 53.7465 33.1675 57.696 33.1363L62.0353 33.1019L62.3581 32.7987C62.5908 32.5802 62.6809 32.3678 62.6809 32.0387C62.6809 31.7095 62.5908 31.4971 62.3581 31.2786L62.0353 30.9754L57.696 30.941C53.7465 30.9098 53.3176 30.9266 52.9201 31.1286ZM9.92766 36.4336C9.27973 36.7948 9.15732 37.5972 9.67171 38.1113L9.97885 38.4184H14.0979C18.0753 38.4184 18.2281 38.4095 18.5465 38.1591C18.9568 37.8366 19.0011 37.0992 18.6371 36.6497L18.3981 36.3544L14.288 36.3242C11.4447 36.3033 10.1009 36.3371 9.92766 36.4336ZM53.7091 36.4178C53.0853 36.669 52.9568 37.733 53.4988 38.1591C53.8172 38.4095 53.97 38.4184 57.9475 38.4184H62.0665L62.3736 38.1113C62.5616 37.9235 62.6809 37.6605 62.6809 37.4336C62.6809 36.3196 62.5576 36.2903 57.8999 36.2997C55.7454 36.3041 53.8595 36.3572 53.7091 36.4178ZM38.1503 56.2169C38.1503 60.6234 38.1359 60.7175 37.3581 61.4001C36.2995 62.3291 34.6167 61.9188 34.0641 60.5972C33.9341 60.2862 33.895 59.2731 33.895 56.2169V52.2412H36.0227H38.1503V56.2169Z"/>
</mask>
<path fill-rule="evenodd" clip-rule="evenodd" d="M14.3707 0.22754C13.8941 0.390787 13.0833 1.14435 9.09787 5.12757C4.81754 9.40551 4.36948 9.89225 4.1835 10.4669C3.9979 11.0406 3.98188 12.5122 4.01204 26.2912L4.04533 41.4832L4.31592 41.9836C4.63494 42.5734 5.24858 43.1768 5.86009 43.502C6.26835 43.7191 6.73818 43.7373 12.7803 43.7704L19.2624 43.8061L19.6326 43.436C19.8361 43.2326 20.0027 42.9464 20.0027 42.8001C20.0027 42.5889 19.7297 41.9021 19.5927 41.7685C19.5773 41.7535 16.6733 41.7114 13.1395 41.6747L6.71428 41.6083L6.4124 41.2573L6.1104 40.9063V26.3399V11.7735H9.46683C13.4626 11.7735 13.852 11.7012 14.7636 10.7902C15.6752 9.87899 15.7474 9.49008 15.7474 5.49359V2.13609L24.0033 2.16999C31.7348 2.20176 32.2734 2.21803 32.4826 2.42718C32.6914 2.63596 32.7102 3.20676 32.7686 11.1633L32.8312 19.6762L33.1824 19.978C33.6412 20.3724 34.1913 20.3704 34.589 19.9728L34.8963 19.6658L34.895 11.0599L34.8938 2.45408L34.5983 1.81973C34.253 1.07855 33.5746 0.474975 32.7846 0.205899C31.9403 -0.0816908 15.2156 -0.0620512 14.3707 0.22754ZM47.7866 0.131593C47.0436 0.357512 46.4915 0.855509 42.1348 5.22865C38.906 8.46957 37.4872 9.97819 37.3476 10.3189C37.1792 10.7298 37.1491 11.4762 37.1491 15.2346V19.6658L37.4563 19.9728C37.8541 20.3704 38.404 20.3724 38.863 19.9782L39.2141 19.6763L39.2504 15.732L39.2867 11.7875L42.88 11.7493L46.4732 11.711L47.1225 11.3689C47.4796 11.1806 47.9144 10.8398 48.0886 10.6115C48.7648 9.72538 48.7886 9.55875 48.7886 5.71051V2.14134H56.9959H65.2033L65.5691 2.50699L65.9349 2.87264V21.8895V40.9063L65.6329 41.2573L65.331 41.6083L58.9058 41.6747C55.372 41.7114 52.468 41.7535 52.4526 41.7685C52.3156 41.9021 52.0426 42.5889 52.0426 42.8001C52.0426 42.9464 52.2092 43.2326 52.4127 43.436L52.7829 43.8061L59.265 43.7704C65.3071 43.7373 65.777 43.7191 66.1852 43.502C66.7968 43.1768 67.4104 42.5734 67.7294 41.9836L68 41.4832V21.9061V2.32898L67.7237 1.8126C67.3379 1.09193 66.4248 0.323361 65.7533 0.154485C65.1142 -0.00638464 48.3107 -0.0277756 47.7866 0.131593ZM13.5955 6.39126C13.5448 9.8626 13.8355 9.57201 10.3624 9.62267C8.91865 9.64382 7.73743 9.61605 7.73743 9.56113C7.73743 9.42928 13.4001 3.76756 13.5319 3.76756C13.588 3.76756 13.6166 4.94819 13.5955 6.39126ZM46.5255 9.10154C46.2691 9.58365 45.8882 9.64694 43.2455 9.64694H40.718L43.6582 6.70612L46.5983 3.76518L46.633 6.29957C46.6565 8.01598 46.6219 8.92015 46.5255 9.10154ZM10.178 14.9904C9.36458 15.1871 9.08273 16.2188 9.68736 16.7868L10.0103 17.09L19.1679 17.1279C25.592 17.1545 28.4673 17.1245 28.8 17.0276C29.7888 16.7394 29.8759 15.4665 28.9338 15.0731C28.5953 14.9318 26.8987 14.9035 19.4748 14.9154C14.4992 14.9234 10.3156 14.9572 10.178 14.9904ZM43.0841 15.0767C42.1699 15.4785 42.2745 16.7446 43.2453 17.0276C43.5781 17.1245 46.4533 17.1545 52.8774 17.1279L62.0351 17.09L62.358 16.7868C62.8029 16.3688 62.8029 15.6846 62.358 15.2666L62.0351 14.9634L52.7523 14.9354C45.1726 14.9125 43.3987 14.9384 43.0841 15.0767ZM9.92766 20.4244C9.28048 20.7781 9.1572 21.5852 9.67171 22.0994L9.97885 22.4065H19.4853H28.9917L29.3268 22.0084C29.7335 21.5254 29.6848 20.9923 29.1948 20.5613L28.8748 20.2799L19.5264 20.2836C13.0017 20.2864 10.1024 20.3288 9.92766 20.4244ZM42.8505 20.5613C42.3606 20.9923 42.3119 21.5254 42.7185 22.0084L43.0537 22.4065H52.56H62.0665L62.3736 22.0994C62.676 21.7973 62.7702 21.2836 62.6032 20.8484C62.3851 20.2806 62.3724 20.2799 52.4938 20.2799H43.1706L42.8505 20.5613ZM34.2079 22.5396C28.398 23.3288 23.7299 27.1558 21.8583 32.6641C20.8817 35.5385 20.8707 39.1218 21.8297 41.9892C22.57 44.2027 23.7709 46.1687 25.3844 47.8085C26.9895 49.4399 28.8938 50.6712 30.9794 51.4265L31.756 51.7077L31.7929 56.2901L31.8299 60.8727L32.1617 61.5801C32.5742 62.4593 33.3702 63.2502 34.2705 63.6751C34.8433 63.9455 35.1374 64 36.0227 64C36.9121 64 37.2025 63.9457 37.7942 63.6684C38.674 63.2561 39.4652 62.4605 39.8904 61.5607L40.2154 60.8727L40.2524 56.2901L40.2894 51.7077L41.0659 51.4284C46.0524 49.6349 49.7414 45.2451 50.7229 39.937C50.9673 38.6148 50.9718 36.1411 50.7322 34.7758C49.6742 28.7456 44.8764 23.8667 38.878 22.7207C37.5673 22.4704 35.3508 22.3843 34.2079 22.5396ZM36.8642 24.611L37.1426 24.6857L37.1771 33.3346L37.2116 41.9836L37.5592 42.7254C38.0285 43.727 38.6273 44.4279 39.5257 45.0276C40.5564 45.7156 41.5498 45.924 43.7976 45.924H45.5782L45.2747 46.2475C44.6739 46.8882 43.2793 47.9513 42.3306 48.4916C38.4046 50.7278 33.6407 50.7278 29.7147 48.4916C28.766 47.9513 27.3714 46.8882 26.7706 46.2475L26.4671 45.924H28.2241C29.1904 45.924 30.2844 45.867 30.6552 45.7972C32.245 45.4981 33.7145 44.3451 34.4297 42.8361L34.8337 41.9836L34.8682 33.3294C34.9005 25.2598 34.9174 24.6714 35.1185 24.6186C35.4486 24.5321 36.5516 24.5273 36.8642 24.611ZM32.7686 33.2128V41.3921L32.4198 42.0631C32.0398 42.7942 31.2309 43.4412 30.4128 43.6682C30.1597 43.7385 28.8203 43.7963 27.4363 43.7967L24.9201 43.7974L24.4121 42.7029C24.1327 42.1009 23.8118 41.2424 23.6991 40.7952C23.5862 40.348 23.4649 39.8835 23.4295 39.7632C23.3695 39.5595 23.5515 39.5441 26.0331 39.5424C28.9295 39.5404 29.2002 39.4882 29.4945 38.8746C29.6979 38.4507 29.6047 38.0117 29.2391 37.6714C28.9819 37.4318 28.8068 37.4177 26.0944 37.4177H23.2221L23.2859 36.3231C23.321 35.7211 23.4758 34.7642 23.6299 34.1965L23.9099 33.1645H26.2157C28.8231 33.1645 29.2423 33.0709 29.5082 32.4293C29.7032 31.959 29.5142 31.3698 29.0907 31.127C28.9308 31.0353 28.0676 30.9506 26.9089 30.9128L24.9917 30.8503L25.6108 29.9746C26.7157 28.4121 28.5244 26.8553 30.2655 25.9684C30.9018 25.6443 32.4576 25.0422 32.6747 25.0361C32.7263 25.0346 32.7686 28.7142 32.7686 33.2128ZM40.369 25.3523C42.8349 26.2797 45.0865 28.0141 46.5319 30.0997L47.052 30.8503L45.1356 30.9128C43.9776 30.9506 43.1145 31.0354 42.9547 31.127C42.5311 31.3698 42.3422 31.959 42.5372 32.4293C42.803 33.0709 43.2223 33.1645 45.8296 33.1645H48.1354L48.4155 34.1965C48.5695 34.7642 48.7244 35.7211 48.7594 36.3231L48.8232 37.4177H45.9274C43.2107 37.4177 43.0161 37.4329 42.7842 37.6647C42.4407 38.0081 42.3529 38.4623 42.5508 38.8746C42.8452 39.4882 43.1159 39.5404 46.0122 39.5424C48.4938 39.5441 48.6758 39.5595 48.6159 39.7632C48.5804 39.8835 48.4592 40.348 48.3463 40.7952C48.2335 41.2424 47.9126 42.1009 47.6333 42.7029L47.1252 43.7974L44.609 43.7967C43.225 43.7963 41.8856 43.7385 41.6325 43.6682C40.8144 43.4412 40.0055 42.7942 39.6255 42.0631L39.2767 41.3921V33.2128C39.2767 27.9706 39.3206 25.0334 39.399 25.0334C39.4663 25.0334 39.9027 25.1769 40.369 25.3523ZM9.67171 25.966C9.16521 26.4721 9.26621 27.2882 9.87409 27.6025C10.4006 27.8747 21.3445 27.8747 21.871 27.6025C22.4789 27.2882 22.5799 26.4721 22.0734 25.966L21.7663 25.6589H15.8726H9.97885L9.67171 25.966ZM49.9719 25.966C49.4654 26.4721 49.5664 27.2882 50.1743 27.6025C50.7008 27.8747 61.6447 27.8747 62.1712 27.6025C62.7791 27.2882 62.8801 26.4721 62.3736 25.966L62.0665 25.6589H56.1728H50.279L49.9719 25.966ZM10.178 31.0024C9.36458 31.199 9.08273 32.2308 9.68723 32.7987L10.01 33.1019L14.3493 33.1363C18.2988 33.1675 18.7277 33.1507 19.1252 32.9487C19.9504 32.5293 19.9504 31.5452 19.1252 31.132C18.734 30.936 18.2585 30.9147 14.5584 30.9276C12.2868 30.9355 10.3156 30.9691 10.178 31.0024ZM52.9201 31.1286C52.4052 31.3904 52.1889 31.878 52.364 32.3827C52.4329 32.5811 52.6681 32.8206 52.9201 32.9487C53.3176 33.1507 53.7465 33.1675 57.696 33.1363L62.0353 33.1019L62.3581 32.7987C62.5908 32.5802 62.6809 32.3678 62.6809 32.0387C62.6809 31.7095 62.5908 31.4971 62.3581 31.2786L62.0353 30.9754L57.696 30.941C53.7465 30.9098 53.3176 30.9266 52.9201 31.1286ZM9.92766 36.4336C9.27973 36.7948 9.15732 37.5972 9.67171 38.1113L9.97885 38.4184H14.0979C18.0753 38.4184 18.2281 38.4095 18.5465 38.1591C18.9568 37.8366 19.0011 37.0992 18.6371 36.6497L18.3981 36.3544L14.288 36.3242C11.4447 36.3033 10.1009 36.3371 9.92766 36.4336ZM53.7091 36.4178C53.0853 36.669 52.9568 37.733 53.4988 38.1591C53.8172 38.4095 53.97 38.4184 57.9475 38.4184H62.0665L62.3736 38.1113C62.5616 37.9235 62.6809 37.6605 62.6809 37.4336C62.6809 36.3196 62.5576 36.2903 57.8999 36.2997C55.7454 36.3041 53.8595 36.3572 53.7091 36.4178ZM38.1503 56.2169C38.1503 60.6234 38.1359 60.7175 37.3581 61.4001C36.2995 62.3291 34.6167 61.9188 34.0641 60.5972C33.9341 60.2862 33.895 59.2731 33.895 56.2169V52.2412H36.0227H38.1503V56.2169Z" fill="#D83838"/>
<path fill-rule="evenodd" clip-rule="evenodd" d="M14.3707 0.22754C13.8941 0.390787 13.0833 1.14435 9.09787 5.12757C4.81754 9.40551 4.36948 9.89225 4.1835 10.4669C3.9979 11.0406 3.98188 12.5122 4.01204 26.2912L4.04533 41.4832L4.31592 41.9836C4.63494 42.5734 5.24858 43.1768 5.86009 43.502C6.26835 43.7191 6.73818 43.7373 12.7803 43.7704L19.2624 43.8061L19.6326 43.436C19.8361 43.2326 20.0027 42.9464 20.0027 42.8001C20.0027 42.5889 19.7297 41.9021 19.5927 41.7685C19.5773 41.7535 16.6733 41.7114 13.1395 41.6747L6.71428 41.6083L6.4124 41.2573L6.1104 40.9063V26.3399V11.7735H9.46683C13.4626 11.7735 13.852 11.7012 14.7636 10.7902C15.6752 9.87899 15.7474 9.49008 15.7474 5.49359V2.13609L24.0033 2.16999C31.7348 2.20176 32.2734 2.21803 32.4826 2.42718C32.6914 2.63596 32.7102 3.20676 32.7686 11.1633L32.8312 19.6762L33.1824 19.978C33.6412 20.3724 34.1913 20.3704 34.589 19.9728L34.8963 19.6658L34.895 11.0599L34.8938 2.45408L34.5983 1.81973C34.253 1.07855 33.5746 0.474975 32.7846 0.205899C31.9403 -0.0816908 15.2156 -0.0620512 14.3707 0.22754ZM47.7866 0.131593C47.0436 0.357512 46.4915 0.855509 42.1348 5.22865C38.906 8.46957 37.4872 9.97819 37.3476 10.3189C37.1792 10.7298 37.1491 11.4762 37.1491 15.2346V19.6658L37.4563 19.9728C37.8541 20.3704 38.404 20.3724 38.863 19.9782L39.2141 19.6763L39.2504 15.732L39.2867 11.7875L42.88 11.7493L46.4732 11.711L47.1225 11.3689C47.4796 11.1806 47.9144 10.8398 48.0886 10.6115C48.7648 9.72538 48.7886 9.55875 48.7886 5.71051V2.14134H56.9959H65.2033L65.5691 2.50699L65.9349 2.87264V21.8895V40.9063L65.6329 41.2573L65.331 41.6083L58.9058 41.6747C55.372 41.7114 52.468 41.7535 52.4526 41.7685C52.3156 41.9021 52.0426 42.5889 52.0426 42.8001C52.0426 42.9464 52.2092 43.2326 52.4127 43.436L52.7829 43.8061L59.265 43.7704C65.3071 43.7373 65.777 43.7191 66.1852 43.502C66.7968 43.1768 67.4104 42.5734 67.7294 41.9836L68 41.4832V21.9061V2.32898L67.7237 1.8126C67.3379 1.09193 66.4248 0.323361 65.7533 0.154485C65.1142 -0.00638464 48.3107 -0.0277756 47.7866 0.131593ZM13.5955 6.39126C13.5448 9.8626 13.8355 9.57201 10.3624 9.62267C8.91865 9.64382 7.73743 9.61605 7.73743 9.56113C7.73743 9.42928 13.4001 3.76756 13.5319 3.76756C13.588 3.76756 13.6166 4.94819 13.5955 6.39126ZM46.5255 9.10154C46.2691 9.58365 45.8882 9.64694 43.2455 9.64694H40.718L43.6582 6.70612L46.5983 3.76518L46.633 6.29957C46.6565 8.01598 46.6219 8.92015 46.5255 9.10154ZM10.178 14.9904C9.36458 15.1871 9.08273 16.2188 9.68736 16.7868L10.0103 17.09L19.1679 17.1279C25.592 17.1545 28.4673 17.1245 28.8 17.0276C29.7888 16.7394 29.8759 15.4665 28.9338 15.0731C28.5953 14.9318 26.8987 14.9035 19.4748 14.9154C14.4992 14.9234 10.3156 14.9572 10.178 14.9904ZM43.0841 15.0767C42.1699 15.4785 42.2745 16.7446 43.2453 17.0276C43.5781 17.1245 46.4533 17.1545 52.8774 17.1279L62.0351 17.09L62.358 16.7868C62.8029 16.3688 62.8029 15.6846 62.358 15.2666L62.0351 14.9634L52.7523 14.9354C45.1726 14.9125 43.3987 14.9384 43.0841 15.0767ZM9.92766 20.4244C9.28048 20.7781 9.1572 21.5852 9.67171 22.0994L9.97885 22.4065H19.4853H28.9917L29.3268 22.0084C29.7335 21.5254 29.6848 20.9923 29.1948 20.5613L28.8748 20.2799L19.5264 20.2836C13.0017 20.2864 10.1024 20.3288 9.92766 20.4244ZM42.8505 20.5613C42.3606 20.9923 42.3119 21.5254 42.7185 22.0084L43.0537 22.4065H52.56H62.0665L62.3736 22.0994C62.676 21.7973 62.7702 21.2836 62.6032 20.8484C62.3851 20.2806 62.3724 20.2799 52.4938 20.2799H43.1706L42.8505 20.5613ZM34.2079 22.5396C28.398 23.3288 23.7299 27.1558 21.8583 32.6641C20.8817 35.5385 20.8707 39.1218 21.8297 41.9892C22.57 44.2027 23.7709 46.1687 25.3844 47.8085C26.9895 49.4399 28.8938 50.6712 30.9794 51.4265L31.756 51.7077L31.7929 56.2901L31.8299 60.8727L32.1617 61.5801C32.5742 62.4593 33.3702 63.2502 34.2705 63.6751C34.8433 63.9455 35.1374 64 36.0227 64C36.9121 64 37.2025 63.9457 37.7942 63.6684C38.674 63.2561 39.4652 62.4605 39.8904 61.5607L40.2154 60.8727L40.2524 56.2901L40.2894 51.7077L41.0659 51.4284C46.0524 49.6349 49.7414 45.2451 50.7229 39.937C50.9673 38.6148 50.9718 36.1411 50.7322 34.7758C49.6742 28.7456 44.8764 23.8667 38.878 22.7207C37.5673 22.4704 35.3508 22.3843 34.2079 22.5396ZM36.8642 24.611L37.1426 24.6857L37.1771 33.3346L37.2116 41.9836L37.5592 42.7254C38.0285 43.727 38.6273 44.4279 39.5257 45.0276C40.5564 45.7156 41.5498 45.924 43.7976 45.924H45.5782L45.2747 46.2475C44.6739 46.8882 43.2793 47.9513 42.3306 48.4916C38.4046 50.7278 33.6407 50.7278 29.7147 48.4916C28.766 47.9513 27.3714 46.8882 26.7706 46.2475L26.4671 45.924H28.2241C29.1904 45.924 30.2844 45.867 30.6552 45.7972C32.245 45.4981 33.7145 44.3451 34.4297 42.8361L34.8337 41.9836L34.8682 33.3294C34.9005 25.2598 34.9174 24.6714 35.1185 24.6186C35.4486 24.5321 36.5516 24.5273 36.8642 24.611ZM32.7686 33.2128V41.3921L32.4198 42.0631C32.0398 42.7942 31.2309 43.4412 30.4128 43.6682C30.1597 43.7385 28.8203 43.7963 27.4363 43.7967L24.9201 43.7974L24.4121 42.7029C24.1327 42.1009 23.8118 41.2424 23.6991 40.7952C23.5862 40.348 23.4649 39.8835 23.4295 39.7632C23.3695 39.5595 23.5515 39.5441 26.0331 39.5424C28.9295 39.5404 29.2002 39.4882 29.4945 38.8746C29.6979 38.4507 29.6047 38.0117 29.2391 37.6714C28.9819 37.4318 28.8068 37.4177 26.0944 37.4177H23.2221L23.2859 36.3231C23.321 35.7211 23.4758 34.7642 23.6299 34.1965L23.9099 33.1645H26.2157C28.8231 33.1645 29.2423 33.0709 29.5082 32.4293C29.7032 31.959 29.5142 31.3698 29.0907 31.127C28.9308 31.0353 28.0676 30.9506 26.9089 30.9128L24.9917 30.8503L25.6108 29.9746C26.7157 28.4121 28.5244 26.8553 30.2655 25.9684C30.9018 25.6443 32.4576 25.0422 32.6747 25.0361C32.7263 25.0346 32.7686 28.7142 32.7686 33.2128ZM40.369 25.3523C42.8349 26.2797 45.0865 28.0141 46.5319 30.0997L47.052 30.8503L45.1356 30.9128C43.9776 30.9506 43.1145 31.0354 42.9547 31.127C42.5311 31.3698 42.3422 31.959 42.5372 32.4293C42.803 33.0709 43.2223 33.1645 45.8296 33.1645H48.1354L48.4155 34.1965C48.5695 34.7642 48.7244 35.7211 48.7594 36.3231L48.8232 37.4177H45.9274C43.2107 37.4177 43.0161 37.4329 42.7842 37.6647C42.4407 38.0081 42.3529 38.4623 42.5508 38.8746C42.8452 39.4882 43.1159 39.5404 46.0122 39.5424C48.4938 39.5441 48.6758 39.5595 48.6159 39.7632C48.5804 39.8835 48.4592 40.348 48.3463 40.7952C48.2335 41.2424 47.9126 42.1009 47.6333 42.7029L47.1252 43.7974L44.609 43.7967C43.225 43.7963 41.8856 43.7385 41.6325 43.6682C40.8144 43.4412 40.0055 42.7942 39.6255 42.0631L39.2767 41.3921V33.2128C39.2767 27.9706 39.3206 25.0334 39.399 25.0334C39.4663 25.0334 39.9027 25.1769 40.369 25.3523ZM9.67171 25.966C9.16521 26.4721 9.26621 27.2882 9.87409 27.6025C10.4006 27.8747 21.3445 27.8747 21.871 27.6025C22.4789 27.2882 22.5799 26.4721 22.0734 25.966L21.7663 25.6589H15.8726H9.97885L9.67171 25.966ZM49.9719 25.966C49.4654 26.4721 49.5664 27.2882 50.1743 27.6025C50.7008 27.8747 61.6447 27.8747 62.1712 27.6025C62.7791 27.2882 62.8801 26.4721 62.3736 25.966L62.0665 25.6589H56.1728H50.279L49.9719 25.966ZM10.178 31.0024C9.36458 31.199 9.08273 32.2308 9.68723 32.7987L10.01 33.1019L14.3493 33.1363C18.2988 33.1675 18.7277 33.1507 19.1252 32.9487C19.9504 32.5293 19.9504 31.5452 19.1252 31.132C18.734 30.936 18.2585 30.9147 14.5584 30.9276C12.2868 30.9355 10.3156 30.9691 10.178 31.0024ZM52.9201 31.1286C52.4052 31.3904 52.1889 31.878 52.364 32.3827C52.4329 32.5811 52.6681 32.8206 52.9201 32.9487C53.3176 33.1507 53.7465 33.1675 57.696 33.1363L62.0353 33.1019L62.3581 32.7987C62.5908 32.5802 62.6809 32.3678 62.6809 32.0387C62.6809 31.7095 62.5908 31.4971 62.3581 31.2786L62.0353 30.9754L57.696 30.941C53.7465 30.9098 53.3176 30.9266 52.9201 31.1286ZM9.92766 36.4336C9.27973 36.7948 9.15732 37.5972 9.67171 38.1113L9.97885 38.4184H14.0979C18.0753 38.4184 18.2281 38.4095 18.5465 38.1591C18.9568 37.8366 19.0011 37.0992 18.6371 36.6497L18.3981 36.3544L14.288 36.3242C11.4447 36.3033 10.1009 36.3371 9.92766 36.4336ZM53.7091 36.4178C53.0853 36.669 52.9568 37.733 53.4988 38.1591C53.8172 38.4095 53.97 38.4184 57.9475 38.4184H62.0665L62.3736 38.1113C62.5616 37.9235 62.6809 37.6605 62.6809 37.4336C62.6809 36.3196 62.5576 36.2903 57.8999 36.2997C55.7454 36.3041 53.8595 36.3572 53.7091 36.4178ZM38.1503 56.2169C38.1503 60.6234 38.1359 60.7175 37.3581 61.4001C36.2995 62.3291 34.6167 61.9188 34.0641 60.5972C33.9341 60.2862 33.895 59.2731 33.895 56.2169V52.2412H36.0227H38.1503V56.2169Z" stroke="black" stroke-width="2" mask="url(#path-1-inside-1_1_1124)"/>
</g>
<defs>
<filter id="filter0_d_1_1124" x="0" y="0" width="72" height="72" filterUnits="userSpaceOnUse" color-interpolation-filters="sRGB">
<feFlood flood-opacity="0" result="BackgroundImageFix"/>
<feColorMatrix in="SourceAlpha" type="matrix" values="0 0 0 0 0 0 0 0 0 0 0 0 0 0 0 0 0 0 127 0" result="hardAlpha"/>
<feOffset dy="4"/>
<feGaussianBlur stdDeviation="2"/>
<feComposite in2="hardAlpha" operator="out"/>
<feColorMatrix type="matrix" values="0 0 0 0 0 0 0 0 0 0 0 0 0 0 0 0 0 0 0.25 0"/>
<feBlend mode="normal" in2="BackgroundImageFix" result="effect1_dropShadow_1_1124"/>
<feBlend mode="normal" in="SourceGraphic" in2="effect1_dropShadow_1_1124" result="shape"/>
</filter>
</defs>
</svg>
