<svg width="152" height="120" viewBox="0 0 152 120" fill="none" xmlns="http://www.w3.org/2000/svg">
<path d="M89.4836 109.581L8.19585 79.6784" stroke="#D9D9D9" stroke-miterlimit="10"/>
<path d="M93.1008 104.944L11.813 75.0417" stroke="#D9D9D9" stroke-miterlimit="10"/>
<path d="M96.7219 100.315L15.4329 70.4028" stroke="#D9D9D9" stroke-miterlimit="10"/>
<path d="M100.343 95.6748L19.054 65.7622" stroke="#D9D9D9" stroke-miterlimit="10"/>
<path d="M103.96 91.0342L22.6712 61.1216" stroke="#D9D9D9" stroke-miterlimit="10"/>
<path d="M107.577 86.4014L26.2884 56.4888" stroke="#D9D9D9" stroke-miterlimit="10"/>
<path d="M111.198 81.7607L29.9095 51.8481" stroke="#D9D9D9" stroke-miterlimit="10"/>
<path d="M114.816 77.124L33.5266 47.2114" stroke="#D9D9D9" stroke-miterlimit="10"/>
<path d="M118.427 72.4846L37.149 42.5807" stroke="#D9D9D9" stroke-miterlimit="10"/>
<path d="M122.044 67.844L40.7662 37.9401" stroke="#D9D9D9" stroke-miterlimit="10"/>
<path d="M125.663 63.206L44.3755 33.3034" stroke="#D9D9D9" stroke-miterlimit="10"/>
<path d="M129.28 58.5693L47.9927 28.6667" stroke="#D9D9D9" stroke-miterlimit="10"/>
<path d="M132.902 53.9404L51.6126 24.0278" stroke="#D9D9D9" stroke-miterlimit="10"/>
<path d="M136.519 49.2998L55.2298 19.3872" stroke="#D9D9D9" stroke-miterlimit="10"/>
<path d="M140.14 44.6631L58.8509 14.7505" stroke="#D9D9D9" stroke-miterlimit="10"/>
<path d="M143.757 40.0225L62.4681 10.1099" stroke="#D9D9D9" stroke-miterlimit="10"/>
</svg>
