<svg width="315" height="315" viewBox="0 0 315 315" fill="none" xmlns="http://www.w3.org/2000/svg">
<mask id="mask0_1_963" style="mask-type:alpha" maskUnits="userSpaceOnUse" x="16" y="16" width="283" height="283">
<circle cx="157.312" cy="157.766" r="141" transform="rotate(-97.04 157.312 157.766)" fill="#C4C4C4"/>
</mask>
<g mask="url(#mask0_1_963)">
<path d="M58.8595 337.989C52.4925 307.238 37.6575 279.96 31.1321 248.987C26.5133 227.088 18.7326 206.184 15.3037 184.047C6.05729 124.431 0.424057 63.9654 -6.9168 4.11391" stroke="#D8D8D8" stroke-width="0.75" stroke-miterlimit="10"/>
<path d="M63.6518 337.468C56.875 307.069 43.7537 279.308 37.1086 248.752C32.256 226.429 23.5411 205.63 20.0138 182.941C10.7941 123.705 5.3807 63.0609 -1.51403 3.47674" stroke="#D8D8D8" stroke-width="0.75" stroke-miterlimit="10"/>
<path d="M67.4996 337.114C60.9118 307.266 50.4053 278.487 43.4043 248.721C37.9675 225.583 27.3227 204.74 23.6404 181.123C19.6573 155.478 21.1245 129.664 18.2218 103.956C14.402 70.1691 7.83318 36.722 3.88209 2.85092" stroke="#D8D8D8" stroke-width="0.75" stroke-miterlimit="10"/>
<path d="M70.5669 336.918C64.5686 307.682 57.4017 277.715 49.959 248.859C43.6605 224.619 30.2723 203.672 26.3726 178.621C22.4218 152.911 27.0427 127.423 24.9314 101.677C22.173 68.1626 13.3815 35.4837 9.26466 2.14694" stroke="#D8D8D8" stroke-width="0.75" stroke-miterlimit="10"/>
<path d="M73.0171 336.836C67.879 307.958 64.1945 277.47 56.72 249.173C49.9227 223.422 32.4213 202.539 28.4238 175.717C24.5477 149.797 32.9062 124.874 31.8927 99.0439C30.5947 66.014 19.0994 34.1224 14.6776 1.49843" stroke="#D8D8D8" stroke-width="0.75" stroke-miterlimit="10"/>
<path d="M75.023 336.85C70.9671 308.413 71.9636 277.155 63.6322 249.588C55.4229 222.44 33.9828 201.157 29.9236 172.448C26.2366 146.182 38.6821 122.044 39.0146 96.0981C39.4197 63.805 24.8648 32.513 20.0571 0.843458" stroke="#D8D8D8" stroke-width="0.75" stroke-miterlimit="10"/>
<path d="M76.7435 336.919C73.8669 308.649 79.9391 277.288 70.6261 250.014C60.9191 221.589 35.0336 199.475 31.1496 168.921C27.7411 142.136 44.457 118.963 46.2768 92.9035C48.4395 61.4614 30.6912 30.6645 25.46 0.135439" stroke="#D8D8D8" stroke-width="0.75" stroke-miterlimit="10"/>
<path d="M78.3563 337.002C76.7004 308.58 88.0962 277.983 77.671 250.514C66.3968 220.822 36.3564 197.699 32.2195 165.342C28.7595 138.222 50.2647 115.646 53.5777 89.6842C57.5127 59.2122 36.4868 28.7998 30.8607 -0.521688" stroke="#D8D8D8" stroke-width="0.75" stroke-miterlimit="10"/>
<path d="M80.0072 337.093C79.5737 308.209 96.3492 279.154 84.6907 251C71.941 220.211 37.5092 195.797 33.3722 161.808C29.9699 134.257 56.0287 112.328 60.8684 86.4897C66.4083 56.938 42.2833 26.9688 36.2808 -1.15755" stroke="#D8D8D8" stroke-width="0.75" stroke-miterlimit="10"/>
<path d="M81.8735 337.163C82.5933 307.662 104.576 280.634 91.6332 251.461C77.5466 219.718 38.8203 193.9 34.7164 158.465C31.4698 130.462 61.8776 109.155 68.0257 83.4675C74.9685 54.6695 47.9699 25.3374 41.6336 -1.82078" stroke="#D8D8D8" stroke-width="0.75" stroke-miterlimit="10"/>
<path d="M84.1393 337.085C85.8573 306.937 112.617 282.12 98.4717 251.775C83.2538 219.195 40.5753 192.051 36.5465 155.348C33.4197 126.846 67.7633 106.242 75.0821 80.6517C83.1752 52.3565 53.6389 23.8516 47.0447 -2.53915" stroke="#D8D8D8" stroke-width="0.75" stroke-miterlimit="10"/>
<path d="M86.9438 336.942C89.3784 306.151 120.359 283.524 105.118 251.984C97.3762 235.962 83.9775 221.213 73.0631 207.407C61.4355 192.721 41.0753 172.595 38.99 152.69C35.9335 123.616 73.698 103.868 81.9087 78.2387C90.8883 50.1866 59.2121 22.7118 52.4472 -3.18434" stroke="#D8D8D8" stroke-width="0.75" stroke-miterlimit="10"/>
<path d="M90.4637 336.647C93.1969 305.255 127.558 284.709 111.52 252.018C103.444 235.574 89.2371 220.401 77.8468 206.33C65.8399 191.51 44.3132 170.913 42.2348 150.575C39.2017 120.792 79.6473 102.195 88.4859 76.3465C98.0175 48.2767 64.7075 21.85 57.8815 -3.80681" stroke="#D8D8D8" stroke-width="0.75" stroke-miterlimit="10"/>
<path d="M94.8512 336.187C97.3397 304.201 134.062 285.479 117.616 251.851C109.436 235.138 94.5529 219.625 82.8874 205.448C70.5805 190.483 48.585 169.843 46.4824 149.145C43.3823 118.494 85.6068 101.41 94.6162 74.9866C104.298 46.5858 69.9584 21.2838 63.2257 -4.51549" stroke="#D8D8D8" stroke-width="0.75" stroke-miterlimit="10"/>
<path d="M100.192 335.629C102.725 303.758 139.323 284.85 122.824 251.44C114.535 234.66 99.8424 219.063 88.2044 204.701C76.0192 189.661 54.0848 168.862 51.8133 148.266C48.433 117.548 91.2177 100.758 100.179 74.3506C109.925 45.6497 75.2552 20.862 68.6332 -5.18277" stroke="#D8D8D8" stroke-width="0.75" stroke-miterlimit="10"/>
<path d="M105.996 335.553C108.719 304.163 142.811 283.559 126.651 251.025C118.295 234.192 104.547 218.488 93.227 203.765C81.5841 188.547 59.967 167.054 57.6279 146.808C54.1548 116.808 96.6151 99.6748 105.589 74.0216C115.624 45.2951 80.6307 20.2551 73.9902 -5.85789" stroke="#D8D8D8" stroke-width="0.75" stroke-miterlimit="10"/>
<path d="M112.114 335.968C114.543 304.805 145.027 282.642 129.726 250.857C121.581 233.857 108.835 217.95 98.0285 202.649C87.0348 187.059 66.1506 164.811 63.9279 144.772C60.6795 115.449 102.277 98.8355 111.263 73.8558C121.561 45.2178 86.0654 19.5345 79.4223 -6.5177" stroke="#D8D8D8" stroke-width="0.75" stroke-miterlimit="10"/>
<path d="M118.508 336.769C120.209 305.747 146.219 281.959 132.069 250.758C124.285 233.583 112.687 217.261 102.578 201.411C92.2948 185.29 72.5492 162.226 70.5707 142.288C67.7816 113.583 108.033 98.1438 117.03 73.8277C127.556 45.3227 91.4467 18.8286 84.7886 -7.18145" stroke="#D8D8D8" stroke-width="0.75" stroke-miterlimit="10"/>
<path d="M125.105 337.871C125.772 306.966 146.659 281.424 133.972 250.737C126.775 233.248 116.346 216.52 107.081 200.081C97.6335 183.303 79.2335 159.468 77.6842 139.498C75.4934 111.314 114.128 97.7159 122.985 73.8908C133.586 45.5075 96.9074 18.1567 90.1886 -7.85594" stroke="#D8D8D8" stroke-width="0.75" stroke-miterlimit="10"/>
<path d="M131.836 339.197C131.285 308.463 146.641 281.044 135.522 250.819C128.97 233.008 119.821 215.789 111.542 198.765C103.018 181.228 86.2429 156.679 85.1527 136.591C83.6593 108.18 121.31 98.2001 129.07 74.0571C138.582 44.4479 102.689 18.6425 95.6071 -8.5143" stroke="#D8D8D8" stroke-width="0.75" stroke-miterlimit="10"/>
<path d="M138.643 340.613C136.838 311.797 146.379 283.233 138.185 254.903C131.381 231.38 120.625 208.818 111.45 186.172C105.286 170.932 94.013 151.044 93.8705 134.225C93.6436 104.972 129.505 97.8026 136.133 71.754C143.334 43.4177 107.826 16.9803 101.008 -9.18132" stroke="#D8D8D8" stroke-width="0.75" stroke-miterlimit="10"/>
<path d="M145.472 342.068C142.426 313.083 146.5 283.651 139.414 255.155C133.442 231.277 124.637 208.031 116.918 184.691C111.661 168.805 101.84 148.677 102.001 131.619C102.261 103.374 135.809 97.2161 142.291 72.1123C149.596 43.8742 113.226 16.2535 106.397 -9.83622" stroke="#D8D8D8" stroke-width="0.75" stroke-miterlimit="10"/>
<path d="M152.243 343.437C148.012 314.155 146.857 284.402 140.806 255.395C135.799 231.166 128.823 207.311 122.652 183.367C118.363 166.838 110.055 146.634 110.475 129.312C111.099 102.141 142.223 96.5843 148.462 72.4476C155.767 44.2195 118.718 15.665 111.797 -10.5142" stroke="#D8D8D8" stroke-width="0.75" stroke-miterlimit="10"/>
<path d="M158.911 344.649C153.609 314.935 147.611 285.377 142.556 255.622C138.4 231.107 133.424 206.723 128.737 182.313C125.452 165.176 118.716 145.06 119.285 127.478C120.088 101.343 148.77 96.0071 154.622 72.7344C161.778 44.3534 124.208 15.0874 117.193 -11.201" stroke="#D8D8D8" stroke-width="0.75" stroke-miterlimit="10"/>
<path d="M165.405 345.609C159.258 315.415 148.923 286.393 144.831 255.784C141.526 231.062 138.44 206.314 135.244 181.579C132.97 163.904 127.795 144.109 128.41 126.239C129.335 101.096 155.413 95.4779 160.739 73.0058C167.612 44.2163 129.72 14.7886 122.592 -11.8486" stroke="#D8D8D8" stroke-width="0.75" stroke-miterlimit="10"/>
<path d="M171.66 346.226C164.993 315.573 151.004 287.314 147.817 255.878C143.55 213.823 136.57 167.983 137.892 125.743C138.643 101.548 162.197 94.9922 166.806 73.1627C173.021 43.6888 135.317 14.7315 128.014 -12.5087" stroke="#D8D8D8" stroke-width="0.75" stroke-miterlimit="10"/>
<path d="M177.624 346.38C171.202 316.653 154.751 290.079 151.927 259.545C147.888 215.901 146.985 169.35 147.471 125.551C147.734 101.981 170.654 92.9837 173.021 70.8669C176.205 40.7597 140.832 14.9203 133.422 -13.1834" stroke="#D8D8D8" stroke-width="0.75" stroke-miterlimit="10"/>
<path d="M183.219 346.01C177.263 315.974 158.974 290.181 156.751 259.291C153.617 215.716 158.105 170.878 157.667 127.182C157.438 104.036 177.396 92.5935 178.735 70.6339C180.644 39.4246 146.469 15.2913 138.779 -13.846" stroke="#D8D8D8" stroke-width="0.75" stroke-miterlimit="10"/>
<path d="M188.578 344.996C182.182 315.236 165.113 288.386 162.902 257.756C159.83 215.332 162.548 171.257 162.706 128.717C162.781 105.583 182.089 91.813 183.278 69.62C184.928 38.8457 152.118 14.181 144.171 -14.5114" stroke="#D8D8D8" stroke-width="0.75" stroke-miterlimit="10"/>
<path d="M193.864 343.344C187.158 312.382 171.872 283.407 169.901 251.539C167.457 212 166.919 171.007 167.45 131.413C167.756 108.352 184.429 92.7508 186.453 70.626C189.309 39.33 157.692 13.722 149.566 -15.2001" stroke="#D8D8D8" stroke-width="0.75" stroke-miterlimit="10"/>
<path d="M199.105 341.165C192.769 310.016 180.605 279.809 177.904 248.061C174.705 210.651 171.735 171.671 171.764 134.135C171.781 110.363 187.311 92.0318 188.906 68.9624C191.015 37.9804 162.79 13.0819 154.981 -15.8087" stroke="#D8D8D8" stroke-width="0.75" stroke-miterlimit="10"/>
<path d="M204.298 338.572C192.333 272.036 177.402 205.061 175.906 137.133C175.364 112.352 189.528 91.2774 190.599 66.9831C191.954 36.5072 167.582 12.2111 160.36 -16.4901" stroke="#D8D8D8" stroke-width="0.75" stroke-miterlimit="10"/>
<path d="M209.462 335.677C204.653 303.504 200.962 271.172 195.737 239.06C190.459 206.683 181.745 173.078 180.016 140.313C178.657 114.374 190.444 90.4588 191.788 64.7906C193.327 35.471 172.07 10.6995 165.756 -17.1768" stroke="#D8D8D8" stroke-width="0.75" stroke-miterlimit="10"/>
<path d="M214.6 332.593C210.834 299.888 212.169 266.231 205.236 233.998C198.839 204.227 186.969 173.954 184.248 143.598C181.82 116.431 191.687 89.6097 192.664 62.5157C193.639 34.1826 176.513 9.48542 171.155 -17.8239" stroke="#D8D8D8" stroke-width="0.75" stroke-miterlimit="10"/>
<path d="M219.743 329.417C217.098 296.493 223.705 260.814 214.905 228.721C207.434 201.431 192.409 174.902 188.735 146.78C185.027 118.391 193.123 88.6442 193.409 60.1241C193.693 32.8033 180.943 8.13 176.544 -18.5118" stroke="#D8D8D8" stroke-width="0.75" stroke-miterlimit="10"/>
<path d="M224.876 326.266C223.332 292.551 235.602 252.958 223.575 220.76C214.89 197.509 196.748 174.872 192.967 150.209C188.657 121.753 194.358 89.9141 194.275 61.0969C194.197 33.6194 185.487 7.88281 181.944 -19.1769" stroke="#D8D8D8" stroke-width="0.75" stroke-miterlimit="10"/>
<path d="M230.026 323.25C229.477 289.271 246.007 248.196 232.976 215.94C224.154 194.116 202.846 176.596 198.372 153.007C192.71 123.478 196.574 89.0849 195.518 58.9168C194.589 32.4613 189.957 6.46292 187.343 -19.845" stroke="#D8D8D8" stroke-width="0.75" stroke-miterlimit="10"/>
<path d="M235.203 320.484C235.452 287.253 256.768 242.584 242.075 211.48C232.519 191.209 209.581 177.95 204.477 155.305C197.6 124.747 199.372 88.2652 197.264 56.8366C195.522 31.0658 194.612 5.25278 192.75 -20.5133" stroke="#D8D8D8" stroke-width="0.75" stroke-miterlimit="10"/>
<path d="M240.417 318.077C241.171 285.589 266.608 237.65 250.739 207.548C240.622 188.374 216.999 179.109 211.459 156.931C203.526 125.335 202.969 87.5284 199.705 54.9024C197.158 29.3821 199.505 4.32559 198.129 -21.178" stroke="#D8D8D8" stroke-width="0.75" stroke-miterlimit="10"/>
<path d="M245.679 316.131C246.319 294.469 251.873 275.395 257.215 254.523C261.302 238.662 267.344 219.699 258.803 204.309C248.501 185.752 225.289 179.822 219.474 157.779C210.813 125.013 207.581 87.0129 203.086 53.2291C199.658 27.586 204.723 3.6548 203.544 -21.8026" stroke="#D8D8D8" stroke-width="0.75" stroke-miterlimit="10"/>
<path d="M251 314.756C251.541 292.703 257.672 273.729 263.481 252.638C267.764 237.227 274.347 217.259 266.047 201.941C256.05 183.487 234.284 179.807 228.57 157.6C219.794 123.499 213.359 86.5688 207.486 51.7361C203.115 25.8063 210.241 3.14206 208.877 -22.5042" stroke="#D8D8D8" stroke-width="0.75" stroke-miterlimit="10"/>
<path d="M256.357 314.074C256.819 291.951 263.045 273.015 268.971 251.889C273.265 236.568 279.818 216.362 271.931 200.963C262.45 182.445 242.002 178.904 236.502 156.802C227.822 122.175 219.574 86.2246 212.838 51.0954C207.836 24.9513 215.765 2.67149 214.276 -23.1709" stroke="#D8D8D8" stroke-width="0.75" stroke-miterlimit="10"/>
<path d="M261.857 314.062C262.41 292.189 268.26 273.148 273.846 252.125C277.981 236.652 284.206 216.809 276.493 201.348C267.308 182.945 247.651 178.057 241.984 156.489C233.044 122.438 224.668 87.2497 217.5 52.7078C211.931 25.8881 220.663 2.76359 219.711 -23.8706" stroke="#D8D8D8" stroke-width="0.75" stroke-miterlimit="10"/>
<path d="M267.39 314.637C268.099 281.54 295.279 234.021 280.417 202.606C271.717 184.213 253.242 177.557 247.475 156.556C238.345 123.425 229.373 89.6903 221.49 56.2041C214.935 28.3374 225.249 3.34476 225.115 -24.5087" stroke="#D8D8D8" stroke-width="0.75" stroke-miterlimit="10"/>
<path d="M272.961 315.691C273.335 282.172 297.863 236.502 283.857 204.517C275.815 186.064 258.878 177.263 252.98 156.832C243.755 124.882 233.846 93.0259 225.077 60.9387C217.199 32.0666 229.676 3.94535 230.498 -25.2153" stroke="#D8D8D8" stroke-width="0.75" stroke-miterlimit="10"/>
<path d="M278.578 317.106C278.408 283.091 299.864 239.633 286.918 206.933C279.61 188.55 264.965 176.767 258.532 157.389C248.5 127.15 238.23 96.9414 228.556 66.5782C219.135 37.0402 234.113 4.36804 235.905 -25.8392" stroke="#D8D8D8" stroke-width="0.75" stroke-miterlimit="10"/>
<path d="M284.213 318.767C283.41 284.276 301.438 243.086 289.72 209.72C283.237 191.246 270.418 176.949 264.094 158.052C254.439 129.228 242.683 101.026 232.149 72.512C221.169 42.7533 238.687 4.36696 241.302 -26.5064" stroke="#D8D8D8" stroke-width="0.75" stroke-miterlimit="10"/>
<path d="M289.862 320.547C288.246 286.247 301.934 248.756 293.045 215.122C287.885 195.608 275.354 178.585 269.152 159.128C260.011 130.473 244.388 103.988 234.959 75.4483C225.078 45.5338 243.533 3.72671 246.686 -27.2029" stroke="#D8D8D8" stroke-width="0.75" stroke-miterlimit="10"/>
<path d="M295.526 322.417C293.156 288.129 303.398 252.021 295.589 218.243C291.031 198.554 280.854 179.376 274.63 160.064C265.794 132.65 249.38 107.764 239.551 80.7148C233.597 64.321 239.071 47.1304 242.409 30.4254C246.286 10.9936 249.889 -8.13216 252.1 -27.8417" stroke="#D8D8D8" stroke-width="0.75" stroke-miterlimit="10"/>
<path d="M301.175 324.186C298.081 290.078 305.001 254.975 298.203 221.224C294.182 201.226 286.32 180.312 280.132 160.884C271.748 134.604 252.409 111.248 245.066 84.7478C235.77 51.2446 253.543 6.11608 257.489 -28.5086" stroke="#D8D8D8" stroke-width="0.75" stroke-miterlimit="10"/>
<path d="M306.811 325.769C303.1 291.969 306.92 257.541 301.026 223.93C297.144 202.852 292.014 182.023 285.665 161.553C277.803 135.752 259.02 112.972 251.79 87.0627C242.27 52.9725 259.136 6.13213 262.877 -29.1726" stroke="#D8D8D8" stroke-width="0.75" stroke-miterlimit="10"/>
<path d="M312.371 327.057C305.485 271.704 306.268 216.199 291.198 161.967C284.029 136.151 266.752 113.004 259.943 87.1541C250.771 52.2953 265.154 6.15461 268.237 -29.8345" stroke="#D8D8D8" stroke-width="0.75" stroke-miterlimit="10"/>
<path d="M317.961 327.927C310.618 272.953 310.507 215.674 297.414 161.551C290.86 134.5 274.763 109.323 269.049 82.0682C261.733 47.3028 271.968 4.8584 273.696 -30.5101" stroke="#D8D8D8" stroke-width="0.75" stroke-miterlimit="10"/>
<path d="M323.467 328.287C316.057 272.938 313.088 216.416 302.867 161.475C297.515 132.663 286.028 104.831 281.218 75.923C275.46 41.3682 279.518 3.81773 279.076 -31.1719" stroke="#D8D8D8" stroke-width="0.75" stroke-miterlimit="10"/>
<path d="M328.904 328.018C313.972 208.084 298.165 88.2474 284.464 -31.8387" stroke="#D8D8D8" stroke-width="0.75" stroke-miterlimit="10"/>
</g>
</svg>
