<svg width="231" height="231" viewBox="0 0 231 231" fill="none" xmlns="http://www.w3.org/2000/svg">
<g filter="url(#filter0_d_706_3)">
<path d="M160.436 58.3641C128.692 33.5987 82.8824 39.2559 58.117 70.9997C33.3517 102.744 39.0089 148.553 70.7527 173.319C102.497 198.084 148.306 192.427 173.072 160.683C197.837 128.939 192.18 83.1294 160.436 58.3641Z" stroke="#D9D9D9" stroke-width="2" stroke-miterlimit="10"/>
<path d="M160.735 70.3141C133.629 49.1668 94.5116 53.9975 73.3643 81.1038C52.2169 108.21 57.0476 147.328 84.154 168.475C111.26 189.622 150.378 184.792 171.525 157.685C192.672 130.579 187.842 91.4615 160.735 70.3141Z" stroke="#D9D9D9" stroke-width="1.8" stroke-miterlimit="10"/>
<path d="M180.511 116.625C177.019 88.3421 151.259 68.2456 122.976 71.7383C94.6931 75.2311 74.5966 100.99 78.0894 129.274C81.5821 157.557 107.342 177.653 135.625 174.16C163.908 170.668 184.004 144.908 180.511 116.625Z" stroke="#D9D9D9" stroke-width="1.6" stroke-miterlimit="10"/>
<path d="M176.791 121.486C174.02 99.0457 153.582 83.1009 131.142 85.8721C108.702 88.6433 92.7575 109.081 95.5287 131.521C98.2999 153.961 118.738 169.906 141.178 167.135C163.618 164.364 179.563 143.926 176.791 121.486Z" stroke="#D9D9D9" stroke-width="1.4" stroke-miterlimit="10"/>
<path d="M173.078 126.346C171.028 109.743 155.907 97.9462 139.304 99.9965C122.702 102.047 110.905 117.168 112.955 133.771C115.005 150.373 130.127 162.17 146.729 160.12C163.332 158.069 175.129 142.948 173.078 126.346Z" stroke="#D9D9D9" stroke-width="1.2" stroke-miterlimit="10"/>
<path d="M169.37 131.221C168.04 120.456 158.236 112.807 147.471 114.136C136.706 115.466 129.056 125.27 130.386 136.035C131.715 146.801 141.52 154.45 152.285 153.12C163.05 151.791 170.699 141.986 169.37 131.221Z" stroke="#D9D9D9" stroke-miterlimit="10"/>
</g>
<defs>
<filter id="filter0_d_706_3" x="37.691" y="41.938" width="155.807" height="155.807" filterUnits="userSpaceOnUse" color-interpolation-filters="sRGB">
<feFlood flood-opacity="0" result="BackgroundImageFix"/>
<feColorMatrix in="SourceAlpha" type="matrix" values="0 0 0 0 0 0 0 0 0 0 0 0 0 0 0 0 0 0 127 0" result="hardAlpha"/>
<feOffset dy="4"/>
<feGaussianBlur stdDeviation="2"/>
<feComposite in2="hardAlpha" operator="out"/>
<feColorMatrix type="matrix" values="0 0 0 0 0 0 0 0 0 0 0 0 0 0 0 0 0 0 0.25 0"/>
<feBlend mode="normal" in2="BackgroundImageFix" result="effect1_dropShadow_706_3"/>
<feBlend mode="normal" in="SourceGraphic" in2="effect1_dropShadow_706_3" result="shape"/>
</filter>
</defs>
</svg>
